<svg xmlns:xlink="http://www.w3.org/1999/xlink" version="1.0" xmlns="http://www.w3.org/2000/svg" width="512" height="512" viewBox="0 0 512.000000 512.000000" preserveAspectRatio="xMidYMid meet">

<g transform="translate(0.000000,512.000000) scale(0.100000,-0.100000)" fill="#FDFFFF" stroke="#FDFFFF" stroke-opacity="0.7" fill-opacity="0.7">
<path d="M141 5107 c-61 -21 -88 -69 -105 -182 -43 -286 -45 -555 -7 -810 139
-932 675 -1752 1444 -2207 56 -33 104 -62 106 -64 3 -3 -153 -163 -345 -357
-377 -380 -393 -399 -416 -524 l-11 -61 -56 -11 c-87 -17 -172 -63 -235 -125
-89 -89 -128 -187 -128 -316 0 -129 42 -230 135 -321 207 -204 560 -149 706
110 6 10 22 3 65 -33 119 -97 240 -140 391 -139 84 0 113 5 185 30 186 64 318
196 382 383 18 53 23 87 23 180 0 139 -25 229 -92 329 -24 35 -42 65 -41 66 7
6 383 218 402 226 18 9 53 -8 226 -107 113 -64 206 -118 208 -119 1 -1 -17
-31 -41 -66 -67 -100 -92 -190 -92 -329 0 -131 19 -204 81 -306 160 -268 503
-366 784 -224 31 16 82 49 114 75 31 26 58 46 60 44 1 -2 12 -20 24 -40 84
-139 283 -228 450 -200 308 52 473 399 316 667 -63 108 -180 190 -306 215
l-56 11 -7 47 c-4 25 -22 79 -41 120 -33 71 -53 93 -381 423 -191 191 -345
350 -342 352 2 2 50 31 107 65 522 308 940 774 1196 1337 130 284 211 575 258
924 19 141 16 554 -5 713 -23 169 -38 198 -125 228 -81 28 -52 53 -767 -659
-363 -361 -882 -877 -1153 -1147 l-492 -490 -1138 1137 c-625 625 -1151 1143
-1169 1152 -37 19 -65 19 -112 3z m1937 -2774 l-267 -267 -48 23 c-305 148
-654 442 -885 746 -285 376 -485 852 -553 1317 -9 57 -18 191 -21 298 l-6 195
1023 -1022 1024 -1023 -267 -267z m2742 2177 c0 -410 -103 -844 -289 -1220
-137 -276 -286 -484 -501 -701 -162 -164 -281 -260 -450 -368 -113 -72 -1645
-941 -1658 -941 -4 0 -59 52 -122 115 l-116 116 1560 1559 c859 858 1564 1560
1569 1560 4 0 7 -54 7 -120z m-1500 -3115 c-63 -63 -118 -115 -122 -115 -16 0
-328 183 -322 189 3 3 90 54 192 113 l187 106 90 -89 90 -89 -115 -115z
m-1802 -473 c-90 -90 -175 -170 -190 -178 -15 -8 -49 -14 -77 -14 -39 0 -56 6
-81 26 -56 48 -75 114 -50 180 6 15 86 103 178 196 l166 168 108 -107 108
-108 -162 -163z m2304 201 c91 -93 171 -178 177 -190 26 -51 8 -125 -42 -172
-28 -25 -96 -38 -144 -26 -18 4 -91 69 -201 178 l-172 171 102 103 c57 57 105
103 108 103 3 0 80 -75 172 -167z m-1910 -270 c63 -72 84 -200 49 -293 -59
-156 -247 -237 -396 -171 -45 20 -105 66 -105 81 0 3 15 14 33 23 18 10 114
99 213 198 98 98 182 179 185 179 3 0 13 -8 21 -17z m1512 -172 c105 -103 201
-192 214 -195 12 -4 22 -11 22 -15 0 -16 -58 -61 -105 -82 -149 -66 -337 14
-395 169 -28 74 -25 168 9 232 23 45 49 80 60 80 2 0 91 -85 195 -189z m-2524
-99 c55 -27 83 -77 78 -138 -12 -150 -180 -194 -272 -71 -28 37 -28 116 0 154
51 69 125 90 194 55z m3460 -4 c54 -37 74 -72 74 -128 0 -78 -56 -138 -135
-147 -86 -9 -159 59 -159 147 0 115 129 190 220 128z" stroke-opacity="0.7" stroke="#FDFFFF" fill-opacity="0.7" fill="#FDFFFF"></path>
</g>
</svg>