<svg xmlns:xlink="http://www.w3.org/1999/xlink" viewBox="0 0 512 512" xmlns="http://www.w3.org/2000/svg" width="512"  height="512" >
  <path d="M504.8 273.5l-144.1 136c-6.975 6.578-17.2 8.375-26 4.594c-8.803-3.797-14.51-12.47-14.51-22.05l-.0918-71.1l-128-.001c-17.69 0-32.02-14.33-32.02-32v-64c0-17.67 14.34-32 32.02-32l128 .001l.0918-72c0-9.578 5.707-18.25 14.51-22.05c8.803-3.781 19.03-1.984 26 4.594l144.1 136C514.4 247.6 514.4 264.4 504.8 273.5z" fill="#151923" fill-opacity="0.5"></path>
  <path d="M96 480h64C177.7 480 192 465.7 192 448S177.7 416 160 416H96c-17.67 0-32-14.33-32-32V128c0-17.67 14.33-32 32-32h64C177.7 96 192 81.67 192 64S177.7 32 160 32H96C42.98 32 0 74.98 0 128v256C0 437 42.98 480 96 480z" fill="#151923" opacity="0.4" fill-opacity="0.5"></path>
</svg>