<svg xmlns:xlink="http://www.w3.org/1999/xlink" viewBox="0 0 512 512" xmlns="http://www.w3.org/2000/svg" width="512"  height="512" >
  <path d="M256 272c39.77 0 72-32.24 72-72S295.8 128 256 128C216.2 128 184 160.2 184 200S216.2 272 256 272zM288 320H224c-47.54 0-87.54 29.88-103.7 71.71C155.1 426.5 203.1 448 256 448s100.9-21.53 135.7-56.29C375.5 349.9 335.5 320 288 320z" fill="#151923" fill-opacity="0.8"></path>
  <path d="M256 0C114.6 0 0 114.6 0 256s114.6 256 256 256s256-114.6 256-256S397.4 0 256 0zM256 128c39.77 0 72 32.24 72 72S295.8 272 256 272c-39.76 0-72-32.24-72-72S216.2 128 256 128zM256 448c-52.93 0-100.9-21.53-135.7-56.29C136.5 349.9 176.5 320 224 320h64c47.54 0 87.54 29.88 103.7 71.71C356.9 426.5 308.9 448 256 448z" fill="#151923" opacity="0.4" fill-opacity="0.8"></path>
</svg>