<svg xmlns:xlink="http://www.w3.org/1999/xlink" id="Layer_1" data-name="Layer 1" xmlns="http://www.w3.org/2000/svg" version="1.1" viewBox="0 0 952.8 338.7" width="952.8"  height="338.7" >
  <path d="M638.9,34.8l-11.3-11.3c-2.8-2.8-2.8-7.3,0-10.1h0l11.3-11.3c2.8-2.8,7.3-2.8,10.2,0l11.3,11.3c2.8,2.8,2.8,7.3,0,10.1h0l-11.3,11.3c-2.8,2.8-7.3,2.8-10.1,0h0M246.1,264.5c-12.3,0-24.1-4.8-32.8-13.5l-47.4-47.4c-3.5-3.3-9-3.3-12.4,0l-47.5,47.5c-8.7,8.7-20.5,13.6-32.8,13.6h-9.3l60,60c18.7,18.7,49.1,18.7,67.8,0l60.1-60.1h-5.8.1ZM73.3,97.1c12.3,0,24.1,4.9,32.8,13.6l47.5,47.5c3.4,3.4,9,3.4,12.4,0l47.3-47.3c8.7-8.7,20.5-13.6,32.8-13.6h5.7l-60.1-60.1c-18.7-18.7-49.1-18.7-67.8,0h0l-59.9,59.9s9.3,0,9.3,0ZM301.6,147l-36.3-36.3c-.8.3-1.7.5-2.6.5h-16.5c-8.6,0-16.8,3.4-22.9,9.5l-47.3,47.3c-8.9,8.9-23.3,8.9-32.1,0l-47.5-47.5c-6.1-6.1-14.3-9.5-22.9-9.5h-20.3c-.8,0-1.7-.2-2.4-.5l-36.6,36.5c-18.7,18.7-18.7,49.1,0,67.8l36.5,36.5c.8-.3,1.6-.5,2.4-.5h20.4c8.6,0,16.8-3.4,22.9-9.5l47.5-47.5c8.6-8.6,23.6-8.6,32.1,0l47.3,47.3c6.1,6.1,14.3,9.5,22.9,9.5h16.5c.9,0,1.8.2,2.6.5l36.3-36.3c18.7-18.7,18.7-49.1,0-67.8h0" style="" fill="#32BCAD" stroke-width="0px"></path>
  <path d="M582.8,122v41.3c0,39-31.7,70.7-70.7,70.7h-81.1c-3.3,0-6-2.7-6-6s2.7-6,6-6h81.1c32.4,0,58.7-26.4,58.7-58.8v-41.3c0-32.3-26.3-58.6-58.5-58.7h-57.3c-32.4,0-58.7,26.3-58.7,58.7v194.3c0,3.3-2.7,6-6,6s-6-2.7-6-6V122c0-39,31.7-70.7,70.7-70.7h57.4c38.9.2,70.5,31.8,70.4,70.7h0ZM617.7,51.3h-24.9c-3.3,0-6,2.7-6,6s2.7,6,6,6h24.9c11.4,0,20.6,9.2,20.6,20.6v145.1c0,3.3,2.7,6,6,6s6-2.7,6-6V83.8c0-17.9-14.6-32.5-32.5-32.5h0ZM692,63.1h24.7c11.2,0,21.7,4.4,29.6,12.3l57.7,57.7c4.7,4.7,11,7.4,17.8,7.3,6.7,0,13-2.6,17.7-7.3l57.6-57.6c7.9-7.9,18.4-12.3,29.6-12.3h20.1c3.3,0,6-2.7,6-6s-2.7-6-6-6h-20.1c-14.4,0-27.9,5.6-38,15.7l-57.5,57.5c-5.1,5.1-13.5,5.1-18.6,0l-57.7-57.7c-10.2-10.2-23.7-15.7-38.1-15.7h-24.7c-3.3,0-6,2.7-6,6s2.7,6,6,6h0ZM946.7,221.5h-20.1c-11.2,0-21.7-4.4-29.6-12.3l-57.5-57.5c-9.8-9.8-25.7-9.8-35.5,0l-57.7,57.7c-7.9,7.9-18.4,12.3-29.6,12.3h-24.7c-3.3,0-6,2.7-6,6s2.7,6,6,6h24.7c14.4,0,27.9-5.6,38-15.7l57.7-57.7c5.1-5.1,13.5-5.1,18.6,0l57.5,57.5c10.2,10.2,23.7,15.7,38,15.7h20.1c3.3,0,6-2.7,6-6s-2.7-6-6-6h0ZM442.5,299.8c4.5,0,6.8,2.2,6.8,7.1s-2.8,7.2-8.8,7.2-4.7-.4-6.9-1.2v-11.8c2.9-.8,5.9-1.2,8.9-1.4M433.7,321.7v-6.9c2.3.7,4.7,1.1,7.1,1.1s4.8-.5,6.9-1.5c2.8-1.6,3.8-4.6,3.8-7.5s-.7-5.6-2.7-7.3c-1.8-1.3-3.9-1.9-6.1-1.8-3.1.2-6.2.7-9.3,1.5l-.2-1h-1.6v23.4h2.1ZM466.4,299.7c5.9,0,8.5,2.3,8.5,7.4s-2.6,7.1-8.5,7.1-8.6-2.3-8.6-7.3,2.6-7.1,8.6-7.1M474,314.1c2.2-1.5,3-4.1,3-7.2s-.8-5.6-3-7.2c-2-1.4-4.6-1.8-7.6-1.8s-5.7.4-7.7,1.8c-2.2,1.6-3.1,4-3.1,7.2s.9,5.7,3.1,7.2c1.9,1.4,4.6,1.8,7.7,1.8s5.6-.4,7.6-1.8M503.9,315.5l7.1-17.1h-2.2l-5.7,14.4h-.1l-6.5-14.4h-1.8l-6.4,14.4h-.1l-5.9-14.4h-2.2l7,17.1h1.8l6.5-14.2h.1l6.6,14.2h1.8ZM523.8,299.6c5.5,0,7.5,2.1,7.7,6h-15.4c.3-3.5,2.2-6,7.7-6M523.7,315.9c3,0,6-.4,9-1v-1.8c-2.9.6-5.9.9-8.8,1-6.7,0-7.8-3.1-7.9-6.6h17.5c0-3.3-.5-6.2-3-7.9-2.1-1.2-4.5-1.8-6.8-1.7-2.4-.1-4.7.5-6.7,1.7-2.3,1.7-3.2,4.4-3.2,7.3s.7,5.4,2.7,7.1c1.7,1.4,3.8,1.9,7.1,1.9M541.3,315.4v-14.4c3.8-1,5.4-1.4,8.1-1.4h.5v-1.9h-.2c-3.2,0-4.9.6-8.5,1.5l-.2-1h-1.6v17.1h2,0ZM561.5,299.6c5.5,0,7.5,2.1,7.7,6h-15.4c.3-3.5,2.2-6,7.7-6M561.4,315.9c3,0,6-.4,9-1v-1.8c-2.9.6-5.9.9-8.9,1-6.7,0-7.8-3.1-7.9-6.6h17.6c0-3.3-.5-6.2-3-7.9-2.1-1.2-4.5-1.8-6.8-1.7-2.4-.1-4.7.5-6.7,1.7-2.3,1.7-3.2,4.4-3.2,7.3s.7,5.4,2.7,7.1c1.7,1.4,3.8,1.9,7.1,1.9M593.2,312.7c-2.9.7-5.9,1.2-8.9,1.3-4.5,0-6.8-2.2-6.8-7.1s2.8-7.2,8.8-7.2,4.7.4,6.9,1.1v11.9h0ZM595.2,315.5v-24.4h-2v7.8c-2.3-.7-4.7-1-7.1-1.1-2.4,0-4.8.5-6.9,1.6-2.8,1.6-3.8,4.4-3.8,7.5s.7,5.6,2.7,7.2c1.7,1.3,3.9,1.9,6.1,1.8,3.1-.2,6.2-.7,9.3-1.5l.2,1h1.6,0ZM624.5,299.8c4.5,0,6.8,2.2,6.8,7.1s-2.8,7.2-8.8,7.2-4.7-.4-6.9-1.2v-11.8c2.9-.8,5.9-1.2,8.9-1.4M629.7,314.4c2.8-1.6,3.8-4.6,3.8-7.5s-.7-5.6-2.7-7.3c-1.8-1.3-3.9-1.9-6.1-1.8-3.1.2-6.1.7-9.1,1.4v-8.2h-2v24.3h1.4v-.8c2.6.8,5.2,1.3,7.8,1.3s4.7-.5,6.9-1.5M636.1,322c.8.1,1.6.2,2.5.2,3.5,0,5.4-1.2,7.2-4.6l9.6-19.2h-2.3l-7.3,14.8h0l-7.7-14.8h-2.3l9,17.1-.7,1.4c-1.4,2.8-2.9,3.5-5.4,3.5s-1.5,0-2.5-.2v1.9M683,305.7c4,0,6.3.3,6.3,3s-1.7,3-6.3,3h-6.6v-6h6.6M681.8,296c4.1,0,6.3.3,6.3,3s-1.8,3.1-6.3,3.1h-5.5v-6.1h5.4M692.1,313.8c1.7-1,2.6-2.8,2.5-4.7,0-3.3-1.9-4.8-4.9-5.5h0c2.7-1.2,3.7-2.9,3.7-5.3,0-1.9-.8-3.7-2.4-4.6-2.4-1.4-5.2-1.5-9.9-1.5h-9.9v23.3h10.2c5.4,0,8.3,0,10.8-1.6M714.8,311.6c-2.4.6-4.8.9-7.2,1-2.7,0-3.7-.7-3.7-2.3s1.2-2.3,4.7-2.3,4.2,0,6.2.3v3.3ZM719.7,315.5v-10.1c0-2.5-.4-4.5-2.3-5.9s-5-1.6-8-1.6-5,.1-7.4.3v3.5c2.2-.2,4.5-.3,6.3-.3,4.8,0,6.6.9,6.6,3.6v.3c-2-.1-4.4-.2-6.2-.2s-4.6,0-6.4.9c-.6.3-1.2.8-1.7,1.3-1.9,2.2-1.6,5.6.7,7.5,1.6.9,3.4,1.4,5.2,1.3,3.1-.1,6.3-.6,9.3-1.5v1h4,0ZM746.7,315.5v-10.5c0-2.4-.5-4.1-1.9-5.4-1.7-1.3-3.8-1.9-5.9-1.8-3.1.2-6.2.7-9.2,1.6l-.2-1.1h-3.9v17.1h4.8v-12.6c2.3-.6,4.6-1,7-1.1,2.8,0,4.4,1.1,4.4,4.2v9.5h4.9ZM760.2,315.9c2.8,0,5.6-.5,8.3-1.1v-3.5c-2.4.5-4.8.8-7.2.9-3.7,0-5.3-1.6-5.3-5.3s2.1-5.4,6.7-5.4,3.7.1,5.5.3v-3.7c-2.1-.2-4-.3-6-.3s-5.4.3-7.5,1.7c-2.6,1.7-3.5,4.6-3.5,7.3s.6,5.6,2.7,7.3c1.8,1.5,4.2,1.8,6.4,1.8M782.7,301.4c4.5,0,6.5,1.7,6.5,5.6s-1.9,5.3-6.5,5.3-6.5-1.7-6.5-5.6,2-5.3,6.5-5.3M790.9,314.1c2.3-1.6,3.2-4.2,3.2-7.3s-.8-5.7-3.2-7.2c-2.1-1.4-4.8-1.8-8.2-1.8s-6.2.4-8.2,1.8c-2.4,1.6-3.2,4.2-3.2,7.3s.8,5.7,3.2,7.2c2.1,1.4,4.9,1.8,8.2,1.8s6.1-.4,8.2-1.8M821.7,315.9c3.8-.1,7.5-.6,11.2-1.5v-4.1c-3.4.8-6.9,1.3-10.3,1.4-4.9,0-7.5-2.5-7.5-7.9s2.8-7.9,9.4-7.9,5.4.2,7.9.4v-4.2c-2.9-.2-5.5-.4-8.1-.4s-7,.4-9.8,2.2c-3.6,2.4-4.7,6.4-4.7,9.9s.8,7.4,3.6,9.7c2.3,1.9,5.5,2.4,8.3,2.4M847,300.9c4,0,5.6,1.2,5.7,4h-11.5c.3-2.6,1.8-4,5.8-4M846.3,315.9c3.5,0,6.9-.5,10.3-1.1v-3.4c-3,.5-6.1.8-9.1.9-4.8,0-6.2-1.7-6.3-4.3h16.3c0-3.5-.2-6.5-3-8.4-2.1-1.5-5-1.7-7.4-1.7s-5.4.3-7.5,1.8c-2.4,1.7-3.2,4.6-3.2,7.2s.8,5.6,2.8,7.2,4.5,1.9,7.3,1.9M883.5,315.5v-10.5c0-2.4-.5-4.1-1.9-5.4-1.7-1.3-3.8-1.9-5.9-1.8-3.1.2-6.2.7-9.2,1.6l-.2-1.1h-3.9v17.1h4.8v-12.6c2.3-.6,4.6-1,7-1.1,2.8,0,4.4,1.1,4.4,4.2v9.5h4.9ZM897.1,315.9c1.7,0,3.3-.3,5-.6v-3.4c-1.1.2-2.3.3-3.4.3s-2.6-.4-3.1-1.6c-.4-1-.5-2.2-.5-3.3v-5.5h6.8v-3.6h-6.8v-5.2h-4.2l-.5,5.2h-3.5v3.6h3.5v6.4c0,1.8.3,3.6,1.3,5.2,1.2,1.8,3.2,2.5,5.6,2.5M911.2,315.5v-12.6c2.2-.6,4.5-.9,6.7-.9h1.7v-4.1h-.6c-2.9.1-5.7.6-8.5,1.6l-.2-1.1h-3.9v17.1h4.8ZM937,311.6c-2.4.6-4.8.9-7.2,1-2.7,0-3.7-.7-3.7-2.3s1.2-2.3,4.7-2.3,4.2,0,6.2.3v3.3ZM941.8,315.5v-10.1c0-2.5-.4-4.5-2.3-5.9s-5-1.6-8-1.6-5,.1-7.4.3v3.5c2.2-.2,4.4-.3,6.3-.3,4.8,0,6.6.9,6.6,3.6v.3c-2-.1-4.4-.2-6.2-.2s-4.6,0-6.4.9c-1.8.8-3,2.6-2.9,4.6,0,1.6.6,3.2,1.9,4.1,1.6.9,3.4,1.4,5.2,1.3,3.1-.1,6.3-.6,9.3-1.5v1h3.9ZM947.9,315.5h4.8v-24.4h-4.8v24.4Z" style="" fill="#F9F9F9" stroke-width="0px"></path>
</svg>