<svg xmlns:xlink="http://www.w3.org/1999/xlink" width="25" height="25" viewBox="0 0 25 25" fill="none" xmlns="http://www.w3.org/2000/svg">
<path d="M21.5416 21.7865C21.5753 21.9386 21.5747 22.0964 21.5397 22.2483C21.5048 22.4002 21.4365 22.5424 21.3397 22.6646C21.2429 22.7868 21.1202 22.8859 20.9803 22.9547C20.8405 23.0236 20.6871 23.0604 20.5312 23.0625C20.3704 23.0616 20.2119 23.0242 20.0677 22.9531L18.2239 22.0521C16.5009 22.6813 14.6141 22.6998 12.8791 22.1044C11.1442 21.509 9.66626 20.3359 8.69269 18.7812C9.99712 18.9504 11.3225 18.8431 12.5828 18.4664C13.8431 18.0898 15.01 17.4521 16.0077 16.5949C17.0053 15.7377 17.8115 14.6802 18.3737 13.491C18.9359 12.3019 19.2415 11.0077 19.2708 9.69271C19.2713 9.096 19.2103 8.50083 19.0885 7.91666C20.3356 8.52155 21.3961 9.45212 22.158 10.61C22.9198 11.7679 23.3547 13.1101 23.4166 14.4948C23.4579 15.5447 23.28 16.5917 22.8945 17.5691C22.5089 18.5465 21.924 19.4329 21.1771 20.1719L21.5416 21.7865Z" fill="#FF3901" fill-opacity="0.5"></path>
<path d="M9.89583 1.5625C7.71384 1.53816 5.61124 2.3801 4.04908 3.90369C2.48692 5.42729 1.5927 7.50819 1.5625 9.69011C1.56176 10.7979 1.79279 11.8935 2.24074 12.9066C2.6887 13.9198 3.34366 14.828 4.16354 15.5729L3.82813 17.3635C3.80021 17.5139 3.80566 17.6685 3.84408 17.8166C3.8825 17.9646 3.95296 18.1023 4.05048 18.2201C4.148 18.3379 4.2702 18.4329 4.40845 18.4982C4.54669 18.5636 4.6976 18.5978 4.85052 18.5984C5.02346 18.5981 5.19362 18.555 5.34583 18.4729L7.31875 17.413C8.15173 17.6802 9.02105 17.8169 9.89583 17.8182C12.0779 17.8426 14.1806 17.0006 15.7428 15.4769C17.3049 13.9532 18.1991 11.8721 18.2292 9.69011C18.199 7.50819 17.3047 5.42729 15.7426 3.90369C14.1804 2.3801 12.0778 1.53816 9.89583 1.5625ZM6.77084 10.9375C6.56481 10.9375 6.36342 10.8764 6.19212 10.762C6.02081 10.6475 5.8873 10.4848 5.80846 10.2945C5.72962 10.1041 5.70899 9.89468 5.74918 9.69262C5.78938 9.49055 5.88859 9.30495 6.03427 9.15927C6.17995 9.01359 6.36555 8.91438 6.56762 8.87418C6.76968 8.83399 6.97912 8.85462 7.16946 8.93346C7.3598 9.0123 7.52249 9.14582 7.63695 9.31712C7.75141 9.48842 7.8125 9.68981 7.8125 9.89584C7.8125 10.1721 7.70275 10.4371 7.5074 10.6324C7.31205 10.8278 7.0471 10.9375 6.77084 10.9375ZM9.89583 10.9375C9.68981 10.9375 9.48842 10.8764 9.31712 10.762C9.14581 10.6475 9.0123 10.4848 8.93346 10.2945C8.85462 10.1041 8.83399 9.89468 8.87418 9.69262C8.91438 9.49055 9.01359 9.30495 9.15927 9.15927C9.30495 9.01359 9.49055 8.91438 9.69262 8.87418C9.89468 8.83399 10.1041 8.85462 10.2945 8.93346C10.4848 9.0123 10.6475 9.14582 10.7619 9.31712C10.8764 9.48842 10.9375 9.68981 10.9375 9.89584C10.9375 10.1721 10.8278 10.4371 10.6324 10.6324C10.4371 10.8278 10.1721 10.9375 9.89583 10.9375ZM13.0208 10.9375C12.8148 10.9375 12.6134 10.8764 12.4421 10.762C12.2708 10.6475 12.1373 10.4848 12.0585 10.2945C11.9796 10.1041 11.959 9.89468 11.9992 9.69262C12.0394 9.49055 12.1386 9.30495 12.2843 9.15927C12.4299 9.01359 12.6156 8.91438 12.8176 8.87418C13.0197 8.83399 13.2291 8.85462 13.4195 8.93346C13.6098 9.0123 13.7725 9.14582 13.8869 9.31712C14.0014 9.48842 14.0625 9.68981 14.0625 9.89584C14.0625 10.1721 13.9528 10.4371 13.7574 10.6324C13.5621 10.8278 13.2971 10.9375 13.0208 10.9375Z" fill="#FF3901"></path>
</svg>