<svg xmlns:xlink="http://www.w3.org/1999/xlink" id="Layer_1" xmlns="http://www.w3.org/2000/svg" version="1.1" viewBox="0 0 40 40" width="40"  height="40" >
  <!-- Generator: Adobe Illustrator 29.2.1, SVG Export Plug-In . SVG Version: 2.1.0 Build 116)  -->
  <path d="M8.7,24.1c-.5-1.3-.7-2.6-.7-4.1s.3-3.1.9-4.5l-6.6-4.8c-1.5,2.8-2.3,5.9-2.3,9.3s.8,6.4,2.2,9.1l6.5-5s0,0,0,0Z" style="" fill="#FBC02D"></path>
  <path d="M9.2,14.9c0-.1,0-.2.1-.3,0-.2.2-.4.3-.6,0-.1.1-.2.2-.3.4-.6.8-1.1,1.2-1.7.1-.1.2-.2.3-.3.1-.1.3-.3.4-.4.1-.1.3-.2.4-.4.1-.1.2-.2.4-.3.2-.2.5-.4.8-.6.1,0,.2-.1.3-.2.2-.1.4-.2.6-.4.1,0,.2-.1.4-.2.2-.1.4-.2.6-.3.1,0,.2-.1.3-.1.3-.1.6-.3,1-.4,0,0,.1,0,.2,0,.3,0,.6-.2.9-.2.1,0,.2,0,.3,0,.3,0,.5,0,.8-.1.1,0,.2,0,.3,0,.4,0,.7,0,1.1,0,3.1,0,5.8,1.2,8,3l5.7-5.7C30,2.1,25.3,0,20,0s-1.2,0-1.8,0c-.2,0-.3,0-.5,0-.5,0-1,.1-1.5.2-.1,0-.2,0-.3,0-.6.1-1.1.3-1.7.4-.2,0-.3.1-.5.2-.4.1-.8.3-1.2.4-.2,0-.3.1-.5.2-.5.2-1,.4-1.5.7-.2,0-.3.2-.5.3-.3.2-.7.4-1,.6-.2.1-.4.2-.6.4-.4.3-.7.5-1.1.8-.2.2-.4.4-.6.5-.3.2-.5.4-.7.7-.2.2-.4.4-.6.6-.2.2-.4.4-.6.7-.3.3-.5.6-.8,1-.2.2-.4.5-.6.7-.2.2-.3.5-.5.7-.1.2-.3.4-.4.7-.1.3-.3.5-.4.8,0,0,0,0,0,0l6.6,4.8c0-.2.2-.4.3-.6Z" style="" fill="#E53935"></path>
  <path d="M27.2,29.6c-.2.2-.5.4-.8.5,0,0,0,0,0,0-.3.2-.5.3-.8.5,0,0,0,0,0,0-.3.1-.5.3-.8.4,0,0,0,0,0,0-.3.1-.5.2-.8.3,0,0,0,0-.1,0-.3,0-.5.2-.8.2,0,0-.1,0-.2,0-.2,0-.5.1-.7.2,0,0-.1,0-.2,0-.2,0-.5,0-.7,0,0,0-.2,0-.2,0-.3,0-.7,0-1,0s-.7,0-1.1,0c-.1,0-.2,0-.3,0-.3,0-.5,0-.8-.1-.1,0-.3,0-.4,0-.2,0-.5-.1-.7-.2-.1,0-.2,0-.3,0-.3-.1-.6-.2-1-.3-.1,0-.2-.1-.4-.2-.2,0-.4-.2-.6-.3-.2,0-.3-.2-.5-.3-.1,0-.3-.2-.4-.3-.2-.1-.3-.2-.5-.3,0,0-.2-.1-.3-.2-.6-.5-1.2-1-1.7-1.6,0,0,0,0-.1-.1-.2-.2-.4-.4-.5-.6,0,0,0,0,0,0-.7-.9-1.3-2-1.7-3.1,0,0,0,0,0,0l-6.5,5s0,0,0,0c.2.4.4.7.6,1.1,0,0,.1.2.2.3.6,1,1.3,2,2.1,2.9.1.1.2.2.3.4.2.3.5.5.7.8.1.1.3.2.4.4.4.4.8.7,1.3,1.1.2.2.4.3.6.5.2.2.5.3.7.5.3.2.6.3.8.5.2.1.4.2.6.3.5.2.9.5,1.4.7.2,0,.4.2.6.2.4.1.8.3,1.1.4.2,0,.3.1.5.2.5.2,1.1.3,1.6.4.1,0,.3,0,.4,0,.5,0,.9.2,1.4.2.2,0,.3,0,.5,0,.6,0,1.2,0,1.8,0s1.3,0,2,0c.3,0,.6,0,.9-.1.3,0,.7,0,1-.2.4,0,.7-.2,1.1-.3.2,0,.5-.1.7-.2.4-.1.9-.3,1.3-.4.1,0,.3-.1.4-.2.5-.2.9-.4,1.4-.6,0,0,.2,0,.3-.1.5-.2,1-.5,1.4-.8,0,0,0,0,.1,0,.5-.3,1-.6,1.4-1,0,0,0,0,0,0,.5-.4.9-.7,1.4-1.1,0,0,0,0,0,0l-6.2-5.2s0,0,0,0Z" style="" fill="#4CAF50"></path>
  <path d="M39.6,24.1c0,0,0-.1,0-.2.1-.6.2-1.1.3-1.7,0,0,0-.2,0-.3,0-.7.1-1.3.1-2,0-1.3-.1-2.7-.4-3.9h-1.6c0,0-18,0-18,0v8h11.3c-.1.3-.2.6-.3.8,0,.1-.1.3-.2.4,0,.1-.1.3-.2.4,0,.2-.2.4-.3.5,0,0,0,.2-.1.2-.1.2-.3.4-.4.6,0,0,0,0,0,.1-.2.2-.3.4-.5.6,0,0,0,0,0,0-.6.7-1.2,1.3-1.9,1.8l6.2,5.2s0,0,0,0c3.1-2.8,5.3-6.5,6.2-10.7Z" style="" fill="#1565C0"></path>
</svg>