<svg xmlns:xlink="http://www.w3.org/1999/xlink" fill="none" height="20" viewBox="0 0 25 20" width="25" xmlns="http://www.w3.org/2000/svg">
  <g clip-path="url(#clip0_25_1228)" fill-opacity="0.8" fill="#212425">
    <path d="M9.16035 4.24609C9.51879 4.24609 9.81738 4.54477 9.81738 4.90312C9.81738 5.14207 9.69789 5.35117 9.48879 5.4707L7.78605 6.48633C7.54707 6.63672 7.42598 6.875 7.42598 7.11328V7.59102C7.42598 7.97934 7.75449 8.30781 8.14277 8.30781C8.53105 8.30781 8.85957 7.97922 8.85957 7.59102V7.53125L10.2338 6.69492C10.8635 6.30859 11.2502 5.62109 11.2502 4.90234C11.2502 3.73867 10.3244 2.8125 9.16035 2.8125H7.60566C6.44082 2.8125 5.51465 3.73867 5.51465 4.90352C5.51465 5.29184 5.84324 5.62031 6.23145 5.62031C6.61969 5.62031 6.94824 5.29172 6.94824 4.90352C6.94824 4.545 7.24691 4.24648 7.60527 4.24648H9.16035V4.24609ZM8.14473 9.33984C7.60566 9.33984 7.1877 9.75781 7.1877 10.293C7.1877 10.832 7.60566 11.25 8.14473 11.25C8.68262 11.25 9.10059 10.8316 9.10059 10.2941C9.09785 9.75781 8.67988 9.33984 8.14473 9.33984ZM23.4221 17.332C24.4064 16.168 25.0002 14.7109 25.0002 13.125C25.0002 9.32812 21.6408 6.25 17.5002 6.25C17.4879 6.25 17.476 6.2516 17.4637 6.25168C17.4807 6.45703 17.5002 6.66406 17.5002 6.875C17.5002 10.7273 14.3877 13.9531 10.2307 14.7852C11.0432 17.7773 13.9494 20 17.5002 20C18.8162 20 20.0518 19.6872 21.1271 19.1414C22.0783 19.6094 23.2854 20 24.6994 20C24.8189 20 24.9244 19.9326 24.9736 19.8201C25.0216 19.7077 24.9993 19.58 24.9173 19.4938C24.9064 19.4805 24.0588 18.5664 23.4221 17.332ZM21.1916 12.4141L17.9104 15.8516C17.7651 16.0036 17.5643 16.0908 17.3545 16.0933C17.1476 16.0933 16.9396 16.0109 16.7928 15.8644L15.2303 14.3019C14.9251 13.9968 14.9251 13.5023 15.2303 13.1972C15.5354 12.8921 16.0299 12.8921 16.335 13.1972L17.3322 14.1945L20.0611 11.3351C20.3602 11.0226 20.8541 11.011 21.1658 11.3095C21.4768 11.6094 21.4885 12.1016 21.1916 12.4141Z" fill="#212425" fill-opacity="0.8"></path>
    <path d="M8.12507 0C3.63796 0 7.24202e-05 3.07812 7.24202e-05 6.875C7.24202e-05 8.4207 0.610229 9.84219 1.62781 10.9922C0.987572 12.2719 0.0953849 13.2312 0.0813224 13.2453C-0.00070883 13.3314 -0.0229745 13.4592 0.0250334 13.5716C0.0742912 13.6836 0.179838 13.75 0.299291 13.75C1.79734 13.75 3.06335 13.3156 4.03913 12.8109C5.24226 13.4023 6.63288 13.75 8.12507 13.75C12.6134 13.75 16.2501 10.6719 16.2501 6.875C16.2501 3.07812 12.6134 0 8.12507 0ZM8.1446 11.25C7.60554 11.25 7.18757 10.832 7.18757 10.293C7.18757 9.75508 7.60593 9.33711 8.14343 9.33711C8.68132 9.33711 9.09929 9.75547 9.09929 10.293C9.09773 10.832 8.67976 11.25 8.1446 11.25ZM10.1993 6.69531L8.85945 7.53125V7.59098C8.85945 7.9793 8.53085 8.30777 8.14265 8.30777C7.75445 8.30777 7.42585 7.98047 7.42585 7.59375V7.11328C7.42585 6.87434 7.54535 6.63555 7.78429 6.48594L9.48703 5.47031C9.69538 5.35156 9.81648 5.14062 9.81648 4.90234C9.81648 4.54383 9.51773 4.24531 9.15945 4.24531H7.60554C7.24703 4.24531 6.94851 4.54398 6.94851 4.90234C6.94851 5.29066 6.61992 5.61914 6.23171 5.61914C5.84339 5.61914 5.51492 5.29055 5.51492 4.90234C5.5157 3.73867 6.44148 2.8125 7.60554 2.8125H9.15867C10.3243 2.8125 11.2501 3.73867 11.2501 4.90234C11.2501 5.62109 10.8634 6.30859 10.1993 6.69531Z" fill="#212425" opacity="0.4" fill-opacity="0.8"></path>
  </g>
  <defs>
    <clipPath id="clip0_25_1228">
      <rect fill="white" height="20" width="25"></rect>
    </clipPath>
  </defs>
</svg>