<svg xmlns:xlink="http://www.w3.org/1999/xlink" width="512" height="512" viewBox="0 0 512 512" xmlns="http://www.w3.org/2000/svg"><g fill="none" fill-rule="evenodd"><circle fill="#F0F0F0" cx="256" cy="256" r="256"></circle><path d="M509.833 222.609H289.392V2.167A258.556 258.556 0 0 0 256 0c-11.317 0-22.461.744-33.391 2.167v220.441H2.167A258.533 258.533 0 0 0 0 256c0 11.319.744 22.461 2.167 33.391h220.441v220.442a258.35 258.35 0 0 0 66.783 0V289.392h220.442A258.533 258.533 0 0 0 512 256c0-11.319-.744-22.461-2.167-33.391Z" fill="#D80027"></path></g></svg>