<svg xmlns="http://www.w3.org/2000/svg" version="1.1" viewBox="0 0 200 200" xmlns:xlink="http://www.w3.org/1999/xlink" width="200"  height="200" >
<g><path style="opacity:0.947" fill="#B38608" d="M 88.5,4.5 C 135.019,1.99757 168.185,21.6642 188,63.5C 201.975,103.971 194.142,139.471 164.5,170C 137.607,192.915 106.94,199.915 72.5,191C 24.8391,173.534 2.33906,139.368 5,88.5C 10.9404,50.8964 31.4404,24.7298 66.5,10C 73.8866,7.82 81.2199,5.98667 88.5,4.5 Z"></path></g>
<g><path style="opacity:1" fill="#EC1E2E" d="M 86.5,12.5 C 130.794,9.38138 162.294,27.7147 181,67.5C 193.552,106.159 185.052,139.326 155.5,167C 128.763,187.297 99.4293,191.964 67.5,181C 25.7199,160.951 7.88654,127.785 14,81.5C 24.086,43.578 48.2527,20.578 86.5,12.5 Z"></path></g>
<g><path style="opacity:1" fill="#FFF3F4" d="M 105.5,21.5 C 110.523,22.006 115.523,22.6727 120.5,23.5C 120.5,24.5 120.5,25.5 120.5,26.5C 117.119,26.5405 113.786,26.2071 110.5,25.5C 110.5,27.1667 110.5,28.8333 110.5,30.5C 113.518,30.7038 116.518,31.0371 119.5,31.5C 119.5,32.5 119.5,33.5 119.5,34.5C 115.821,34.2756 112.154,33.9422 108.5,33.5C 109.495,38.5418 107.495,40.8752 102.5,40.5C 103.222,34.112 104.222,27.7787 105.5,21.5 Z"></path></g>
<g><path style="opacity:1" fill="#FFEFF0" d="M 87.5,21.5 C 89.1765,22.1834 89.8432,23.5168 89.5,25.5C 86.4318,25.5467 83.4318,26.0467 80.5,27C 79.6198,28.3561 79.2865,29.8561 79.5,31.5C 83.0845,30.4172 86.7512,29.7506 90.5,29.5C 90.67,30.8221 90.3366,31.9887 89.5,33C 86.8832,33.8215 84.2165,34.3215 81.5,34.5C 81.5,36.1667 81.5,37.8333 81.5,39.5C 84.5212,38.9951 87.5212,38.3284 90.5,37.5C 92.9944,37.622 93.661,38.622 92.5,40.5C 87.2255,41.8187 81.8922,42.8187 76.5,43.5C 75.343,37.2018 74.343,30.8685 73.5,24.5C 78.3485,23.7838 83.0152,22.7838 87.5,21.5 Z"></path></g>
<g><path style="opacity:1" fill="#FEF3F4" d="M 55.5,33.5 C 58.7798,36.0435 61.6132,39.0435 64,42.5C 66.2584,49.82 63.7584,54.9867 56.5,58C 54.1667,58.6667 51.8333,58.6667 49.5,58C 45.9383,54.9416 42.9383,51.4416 40.5,47.5C 41.1667,46.1667 42.1667,45.1667 43.5,44.5C 46.6511,47.1504 49.6511,49.9838 52.5,53C 59.245,53.5932 61.4117,50.7599 59,44.5C 56.4598,42.2953 54.2932,39.7953 52.5,37C 53.7101,35.9609 54.7101,34.7942 55.5,33.5 Z"></path></g>
<g><path style="opacity:1" fill="#FFF5F5" d="M 140.5,34.5 C 143.817,34.1575 146.151,35.4908 147.5,38.5C 146.804,45.2754 145.638,51.9421 144,58.5C 142.488,57.7433 141.154,56.7433 140,55.5C 140.409,53.7749 140.242,52.1082 139.5,50.5C 137.321,49.2433 135.321,47.7433 133.5,46C 131.893,45.8849 130.393,46.3849 129,47.5C 127.374,46.7113 125.874,45.7113 124.5,44.5C 129.898,41.1417 135.231,37.8084 140.5,34.5 Z"></path></g>
<g><path style="opacity:1" fill="#F03C43" d="M 141.5,39.5 C 142.097,39.7352 142.43,40.2352 142.5,41C 141.873,43.1351 141.373,45.3018 141,47.5C 139.167,46.3333 137.333,45.1667 135.5,44C 137.684,42.6366 139.684,41.1366 141.5,39.5 Z"></path></g>
<g><path style="opacity:1" fill="#FBEBE6" d="M 89.5,47.5 C 120.841,45.0772 141.341,58.7438 151,88.5C 154.383,120.423 140.883,141.256 110.5,151C 80.0373,154.691 59.5373,142.191 49,113.5C 43.9285,79.9586 57.4285,57.9586 89.5,47.5 Z"></path></g>
<g><path style="opacity:1" fill="#AF8921" d="M 90.5,49.5 C 120.543,47.593 140.043,60.9263 149,89.5C 152.226,120.919 138.726,140.752 108.5,149C 79.2908,151.776 60.1241,139.276 51,111.5C 46.7515,79.651 59.9182,58.9844 90.5,49.5 Z"></path></g>
<g><path style="opacity:1" fill="#8999AE" d="M 145.5,112.5 C 145.065,115.157 144.065,117.491 142.5,119.5C 142.187,116.753 142.52,114.086 143.5,111.5C 144.183,111.863 144.85,112.196 145.5,112.5 Z"></path></g>
<g><path style="opacity:1" fill="#214A8A" d="M 106.5,52.5 C 107.791,52.2627 108.791,52.596 109.5,53.5C 110.167,53.5 110.833,53.5 111.5,53.5C 111.281,54.675 111.614,55.675 112.5,56.5C 113.298,56.0431 113.631,55.3764 113.5,54.5C 113.833,54.5 114.167,54.5 114.5,54.5C 115.684,55.6879 115.684,56.8545 114.5,58C 115.678,58.9669 117.011,59.4669 118.5,59.5C 117.271,60.2811 115.938,60.7811 114.5,61C 115,61.5 115.5,62 116,62.5C 117.398,61.9491 118.732,61.6158 120,61.5C 120.49,60.2068 120.657,58.8734 120.5,57.5C 120.833,57.5 121.167,57.5 121.5,57.5C 121.5,60.1667 121.5,62.8333 121.5,65.5C 121.5,65.8333 121.5,66.1667 121.5,66.5C 121.5,68.1667 121.5,69.8333 121.5,71.5C 121.5,73.1667 121.5,74.8333 121.5,76.5C 121.167,76.5 120.833,76.5 120.5,76.5C 120.5,77.1667 120.5,77.8333 120.5,78.5C 118.473,78.3379 116.473,78.5045 114.5,79C 115,79.5 115.5,80 116,80.5C 117.564,80.0879 119.064,79.7546 120.5,79.5C 120.5,80.1667 120.5,80.8333 120.5,81.5C 118.473,81.3379 116.473,81.5045 114.5,82C 115,82.5 115.5,83 116,83.5C 117.564,83.0879 119.064,82.7546 120.5,82.5C 120.5,83.1667 120.5,83.8333 120.5,84.5C 118.473,84.3379 116.473,84.5045 114.5,85C 115,85.5 115.5,86 116,86.5C 117.564,86.0879 119.064,85.7546 120.5,85.5C 120.5,86.1667 120.5,86.8333 120.5,87.5C 118.473,87.3379 116.473,87.5045 114.5,88C 115,88.5 115.5,89 116,89.5C 117.564,89.0879 119.064,88.7546 120.5,88.5C 120.5,89.1667 120.5,89.8333 120.5,90.5C 118.473,90.3379 116.473,90.5045 114.5,91C 115,91.5 115.5,92 116,92.5C 117.564,92.0879 119.064,91.7546 120.5,91.5C 120.5,92.1667 120.5,92.8333 120.5,93.5C 118.473,93.3379 116.473,93.5045 114.5,94C 115,94.5 115.5,95 116,95.5C 117.564,95.0879 119.064,94.7546 120.5,94.5C 120.5,95.1667 120.5,95.8333 120.5,96.5C 118.473,96.3379 116.473,96.5045 114.5,97C 115,97.5 115.5,98 116,98.5C 117.564,98.0879 119.064,97.7546 120.5,97.5C 120.5,98.1667 120.5,98.8333 120.5,99.5C 118.473,99.3379 116.473,99.5045 114.5,100C 115,100.5 115.5,101 116,101.5C 117.414,100.587 118.914,100.587 120.5,101.5C 120.5,101.833 120.5,102.167 120.5,102.5C 118.473,102.338 116.473,102.505 114.5,103C 115,103.5 115.5,104 116,104.5C 117.414,103.587 118.914,103.587 120.5,104.5C 120.5,104.833 120.5,105.167 120.5,105.5C 119.167,105.5 117.833,105.5 116.5,105.5C 115.624,105.369 114.957,105.702 114.5,106.5C 114.527,110.527 114.527,114.527 114.5,118.5C 114.167,118.5 113.833,118.5 113.5,118.5C 112.377,117.243 111.711,117.576 111.5,119.5C 110.596,120.209 110.263,121.209 110.5,122.5C 109.167,122.5 107.833,122.5 106.5,122.5C 106.5,121.167 105.833,120.5 104.5,120.5C 104.5,120.167 104.5,119.833 104.5,119.5C 107.167,118.833 107.167,118.167 104.5,117.5C 104.167,117.5 103.833,117.5 103.5,117.5C 103.5,117.167 103.5,116.833 103.5,116.5C 102.833,113.833 102.167,113.833 101.5,116.5C 100.833,116.5 100.167,116.5 99.5,116.5C 99.5,113.5 99.5,110.5 99.5,107.5C 100.833,107.5 102.167,107.5 103.5,107.5C 103.5,104.833 103.5,102.167 103.5,99.5C 103.833,99.5 104.167,99.5 104.5,99.5C 104.5,99.1667 104.5,98.8333 104.5,98.5C 105.833,98.5 107.167,98.5 108.5,98.5C 108.777,103.233 108.443,107.9 107.5,112.5C 109.396,113.466 111.396,113.799 113.5,113.5C 113.5,103.833 113.5,94.1667 113.5,84.5C 110.287,84.19 107.287,84.5233 104.5,85.5C 104.167,85.5 103.833,85.5 103.5,85.5C 102.432,84.5655 101.099,84.2322 99.5,84.5C 99.7148,82.8212 99.0481,81.8212 97.5,81.5C 98.9264,80.6588 100.26,79.6588 101.5,78.5C 101.369,79.3764 101.702,80.0431 102.5,80.5C 103.452,78.9547 103.785,77.288 103.5,75.5C 103.833,75.5 104.167,75.5 104.5,75.5C 104.215,77.288 104.548,78.9547 105.5,80.5C 105.833,76.1667 106.167,71.8333 106.5,67.5C 106.492,62.7784 105.825,58.4451 104.5,54.5C 105.167,53.8333 105.833,53.1667 106.5,52.5 Z"></path></g>
<g><path style="opacity:1" fill="#AAB0A6" d="M 147.5,102.5 C 147.634,104.292 147.301,105.958 146.5,107.5C 146.093,106.238 145.76,104.905 145.5,103.5C 145.957,102.702 146.624,102.369 147.5,102.5 Z"></path></g>
<g><path style="opacity:1" fill="#647CA8" d="M 144.5,84.5 C 146.118,87.1709 146.785,90.1709 146.5,93.5C 145.861,94.0968 145.528,94.9302 145.5,96C 145.684,97.3756 146.351,98.2089 147.5,98.5C 147.5,99.8333 147.5,101.167 147.5,102.5C 146.624,102.369 145.957,102.702 145.5,103.5C 145.76,104.905 146.093,106.238 146.5,107.5C 146.737,108.791 146.404,109.791 145.5,110.5C 144.811,109.226 143.977,109.226 143,110.5C 142.505,108.527 142.338,106.527 142.5,104.5C 137.167,103.833 137.167,103.167 142.5,102.5C 142.5,101.167 142.5,99.8333 142.5,98.5C 141.167,98.5 139.833,98.5 138.5,98.5C 138.5,95.5 138.5,92.5 138.5,89.5C 140.086,88.5868 141.586,88.5868 143,89.5C 143.5,89 144,88.5 144.5,88C 143.062,87.7811 141.729,87.2811 140.5,86.5C 141.274,85.2888 142.107,85.2888 143,86.5C 143.717,85.9558 144.217,85.2891 144.5,84.5 Z"></path></g>
<g><path style="opacity:1" fill="#B4BEC2" d="M 146.5,93.5 C 147.451,94.9187 147.784,96.5853 147.5,98.5C 146.351,98.2089 145.684,97.3756 145.5,96C 145.528,94.9302 145.861,94.0968 146.5,93.5 Z"></path></g>
<g><path style="opacity:1" fill="#385C96" d="M 127.5,61.5 C 128.71,61.9321 129.71,62.5987 130.5,63.5C 129.351,63.7911 128.684,64.6244 128.5,66C 128.68,68.2414 129.513,68.7414 131,67.5C 131.333,69.5 131.667,71.5 132,73.5C 133.135,73.727 134.302,74.0604 135.5,74.5C 134.271,75.2811 132.938,75.7811 131.5,76C 132,76.5 132.5,77 133,77.5C 134.564,77.0879 136.064,76.7546 137.5,76.5C 137.5,77.1667 137.5,77.8333 137.5,78.5C 135.473,78.3379 133.473,78.5045 131.5,79C 132,79.5 132.5,80 133,80.5C 134.564,80.0879 136.064,79.7546 137.5,79.5C 137.5,80.1667 137.5,80.8333 137.5,81.5C 135.473,81.3379 133.473,81.5045 131.5,82C 132,82.5 132.5,83 133,83.5C 134.564,83.0879 136.064,82.7546 137.5,82.5C 137.5,83.1667 137.5,83.8333 137.5,84.5C 135.473,84.3379 133.473,84.5045 131.5,85C 132,85.5 132.5,86 133,86.5C 134.564,86.0879 136.064,85.7546 137.5,85.5C 137.5,86.1667 137.5,86.8333 137.5,87.5C 135.473,87.3379 133.473,87.5045 131.5,88C 132,88.5 132.5,89 133,89.5C 134.564,89.0879 136.064,88.7546 137.5,88.5C 137.5,89.1667 137.5,89.8333 137.5,90.5C 135.473,90.3379 133.473,90.5045 131.5,91C 132,91.5 132.5,92 133,92.5C 134.564,92.0879 136.064,91.7546 137.5,91.5C 137.5,92.1667 137.5,92.8333 137.5,93.5C 135.473,93.3379 133.473,93.5045 131.5,94C 132,94.5 132.5,95 133,95.5C 134.564,95.0879 136.064,94.7546 137.5,94.5C 137.5,95.1667 137.5,95.8333 137.5,96.5C 135.473,96.3379 133.473,96.5045 131.5,97C 132,97.5 132.5,98 133,98.5C 134.414,97.5868 135.914,97.5868 137.5,98.5C 137.5,99.5 137.5,100.5 137.5,101.5C 135.05,101.702 132.717,101.369 130.5,100.5C 129.923,99.2267 129.257,99.2267 128.5,100.5C 128.957,101.298 129.624,101.631 130.5,101.5C 130.5,101.833 130.5,102.167 130.5,102.5C 129.167,102.5 128.5,103.167 128.5,104.5C 127.833,104.5 127.167,104.5 126.5,104.5C 126.611,103.883 126.944,103.383 127.5,103C 126.584,102.722 125.918,102.222 125.5,101.5C 126.117,101.389 126.617,101.056 127,100.5C 127.5,92.5069 127.666,84.5069 127.5,76.5C 126.377,71.376 126.377,66.376 127.5,61.5 Z"></path></g>
<g><path style="opacity:1" fill="#6A84B0" d="M 123.5,58.5 C 124.167,58.8333 124.833,59.1667 125.5,59.5C 125.389,60.1174 125.056,60.6174 124.5,61C 125.309,66.4171 125.809,71.9171 126,77.5C 126.383,76.944 126.883,76.6107 127.5,76.5C 127.666,84.5069 127.5,92.5069 127,100.5C 126.617,101.056 126.117,101.389 125.5,101.5C 125.5,100.5 125.5,99.5 125.5,98.5C 124.167,98.5 122.833,98.5 121.5,98.5C 121.5,91.1667 121.5,83.8333 121.5,76.5C 121.5,74.8333 121.5,73.1667 121.5,71.5C 122.649,71.2089 123.316,70.3756 123.5,69C 123.316,67.6244 122.649,66.7911 121.5,66.5C 121.5,66.1667 121.5,65.8333 121.5,65.5C 123.344,63.7211 124.01,61.3878 123.5,58.5 Z"></path></g>
<g><path style="opacity:1" fill="#BAC9DC" d="M 144.5,84.5 C 144.217,85.2891 143.717,85.9558 143,86.5C 142.107,85.2888 141.274,85.2888 140.5,86.5C 141.729,87.2811 143.062,87.7811 144.5,88C 144,88.5 143.5,89 143,89.5C 141.586,88.5868 140.086,88.5868 138.5,89.5C 138.5,87.8333 138.5,86.1667 138.5,84.5C 140.5,84.5 142.5,84.5 144.5,84.5 Z"></path></g>
<g><path style="opacity:1" fill="#ADBBCA" d="M 142.5,79.5 C 143.674,80.5137 144.34,81.847 144.5,83.5C 142.415,82.6497 140.415,82.3163 138.5,82.5C 140.332,81.9432 141.665,80.9432 142.5,79.5 Z"></path></g>
<g><path style="opacity:1" fill="#A7B8CC" d="M 138.5,72.5 C 139.488,73.795 140.488,75.1283 141.5,76.5C 140.839,77.7175 140.172,79.0508 139.5,80.5C 138.52,77.9135 138.187,75.2469 138.5,72.5 Z"></path></g>
<g><path style="opacity:1" fill="#CCD7E5" d="M 107.5,70.5 C 108.251,69.4265 109.251,69.2599 110.5,70C 110.324,71.6916 109.824,73.1916 109,74.5C 108.139,73.2524 107.639,71.9191 107.5,70.5 Z"></path></g>
<g><path style="opacity:1" fill="#C1CEDE" d="M 125.5,59.5 C 126.5,59.8333 127.167,60.5 127.5,61.5C 126.377,66.376 126.377,71.376 127.5,76.5C 126.883,76.6107 126.383,76.944 126,77.5C 125.809,71.9171 125.309,66.4171 124.5,61C 125.056,60.6174 125.389,60.1174 125.5,59.5 Z"></path></g>
<g><path style="opacity:1" fill="#8499BB" d="M 130.5,63.5 C 133.573,65.5691 135.906,68.2358 137.5,71.5C 137.5,73.1667 137.5,74.8333 137.5,76.5C 136.064,76.7546 134.564,77.0879 133,77.5C 132.5,77 132,76.5 131.5,76C 132.938,75.7811 134.271,75.2811 135.5,74.5C 134.302,74.0604 133.135,73.727 132,73.5C 131.667,71.5 131.333,69.5 131,67.5C 129.513,68.7414 128.68,68.2414 128.5,66C 128.684,64.6244 129.351,63.7911 130.5,63.5 Z"></path></g>
<g><path style="opacity:1" fill="#BAC9DC" d="M 121.5,66.5 C 122.649,66.7911 123.316,67.6244 123.5,69C 123.316,70.3756 122.649,71.2089 121.5,71.5C 121.5,69.8333 121.5,68.1667 121.5,66.5 Z"></path></g>
<g><path style="opacity:1" fill="#7A91B9" d="M 114.5,63.5 C 116.5,63.5 118.5,63.5 120.5,63.5C 120.5,65.1667 120.5,66.8333 120.5,68.5C 118.5,68.5 116.5,68.5 114.5,68.5C 114.5,66.8333 114.5,65.1667 114.5,63.5 Z"></path></g>
<g><path style="opacity:1" fill="#B4C4D9" d="M 111.5,63.5 C 112.649,63.7911 113.316,64.6244 113.5,66C 113.167,66.8333 112.833,67.6667 112.5,68.5C 111.548,66.9547 111.215,65.288 111.5,63.5 Z"></path></g>
<g><path style="opacity:1" fill="#ACBDD4" d="M 72.5,60.5 C 72.7852,62.288 72.4519,63.9547 71.5,65.5C 70.6143,64.675 70.281,63.675 70.5,62.5C 70.8333,61.5 71.5,60.8333 72.5,60.5 Z"></path></g>
<g><path style="opacity:1" fill="#9DABB5" d="M 69.5,63.5 C 69.1788,65.0481 68.1788,65.7148 66.5,65.5C 66.9731,64.0937 67.9731,63.427 69.5,63.5 Z"></path></g>
<g><path style="opacity:1" fill="#B2C1D4" d="M 121.5,57.5 C 122.492,57.3284 123.158,57.6618 123.5,58.5C 124.01,61.3878 123.344,63.7211 121.5,65.5C 121.5,62.8333 121.5,60.1667 121.5,57.5 Z"></path></g>
<g><path style="opacity:1" fill="#90A4C3" d="M 114.5,54.5 C 116.819,54.9925 118.819,55.9925 120.5,57.5C 120.657,58.8734 120.49,60.2068 120,61.5C 118.732,61.6158 117.398,61.9491 116,62.5C 115.5,62 115,61.5 114.5,61C 115.938,60.7811 117.271,60.2811 118.5,59.5C 117.011,59.4669 115.678,58.9669 114.5,58C 115.684,56.8545 115.684,55.6879 114.5,54.5 Z"></path></g>
<g><path style="opacity:1" fill="#C4D1E1" d="M 109.5,53.5 C 109.683,56.0277 110.017,58.5277 110.5,61C 109.5,63 108.5,63 107.5,61C 107.5,59 107.5,57 107.5,55C 108.044,54.2828 108.711,53.7828 109.5,53.5 Z"></path></g>
<g><path style="opacity:1" fill="#B2C2D8" d="M 104.5,54.5 C 105.825,58.4451 106.492,62.7784 106.5,67.5C 106.167,71.8333 105.833,76.1667 105.5,80.5C 104.548,78.9547 104.215,77.288 104.5,75.5C 104.5,68.5 104.5,61.5 104.5,54.5 Z"></path></g>
<g><path style="opacity:1" fill="#C1CBD3" d="M 111.5,53.5 C 112.492,53.3284 113.158,53.6618 113.5,54.5C 113.631,55.3764 113.298,56.0431 112.5,56.5C 111.614,55.675 111.281,54.675 111.5,53.5 Z"></path></g>
<g><path style="opacity:1" fill="#0F3F81" d="M 106.5,52.5 C 105.833,53.1667 105.167,53.8333 104.5,54.5C 104.5,61.5 104.5,68.5 104.5,75.5C 104.167,75.5 103.833,75.5 103.5,75.5C 103.5,73.5 103.5,71.5 103.5,69.5C 101.5,69.5 99.5,69.5 97.5,69.5C 97.5,71.1667 97.5,72.8333 97.5,74.5C 98.8333,74.5 100.167,74.5 101.5,74.5C 101.5,75.8333 101.5,77.1667 101.5,78.5C 100.26,79.6588 98.9264,80.6588 97.5,81.5C 97.2308,83.4286 97.7308,85.0953 99,86.5C 100.564,86.0879 102.064,85.7546 103.5,85.5C 103.833,85.5 104.167,85.5 104.5,85.5C 104.5,89.8333 104.5,94.1667 104.5,98.5C 104.5,98.8333 104.5,99.1667 104.5,99.5C 104.167,99.5 103.833,99.5 103.5,99.5C 103.5,96.5 103.5,93.5 103.5,90.5C 101.5,90.5 99.5,90.5 97.5,90.5C 97.5,91.5 97.5,92.5 97.5,93.5C 98.362,100.931 98.362,108.265 97.5,115.5C 97.9569,116.298 98.6236,116.631 99.5,116.5C 100.167,116.5 100.833,116.5 101.5,116.5C 102.167,116.5 102.833,116.5 103.5,116.5C 103.5,116.833 103.5,117.167 103.5,117.5C 103.833,117.5 104.167,117.5 104.5,117.5C 104.5,118.167 104.5,118.833 104.5,119.5C 104.5,119.833 104.5,120.167 104.5,120.5C 105.833,120.5 106.5,121.167 106.5,122.5C 107.833,122.5 109.167,122.5 110.5,122.5C 110.263,121.209 110.596,120.209 111.5,119.5C 112.492,119.672 113.158,119.338 113.5,118.5C 113.833,118.5 114.167,118.5 114.5,118.5C 114.842,119.338 115.508,119.672 116.5,119.5C 117.833,119.5 119.167,119.5 120.5,119.5C 120.5,114.833 120.5,110.167 120.5,105.5C 120.5,105.167 120.5,104.833 120.5,104.5C 120.5,103.833 120.5,103.167 120.5,102.5C 120.5,102.167 120.5,101.833 120.5,101.5C 120.5,100.833 120.5,100.167 120.5,99.5C 120.5,98.8333 120.5,98.1667 120.5,97.5C 120.5,97.1667 120.5,96.8333 120.5,96.5C 120.5,95.8333 120.5,95.1667 120.5,94.5C 120.5,94.1667 120.5,93.8333 120.5,93.5C 120.5,92.8333 120.5,92.1667 120.5,91.5C 120.5,91.1667 120.5,90.8333 120.5,90.5C 120.5,89.8333 120.5,89.1667 120.5,88.5C 120.5,88.1667 120.5,87.8333 120.5,87.5C 120.5,86.8333 120.5,86.1667 120.5,85.5C 120.5,85.1667 120.5,84.8333 120.5,84.5C 120.5,83.8333 120.5,83.1667 120.5,82.5C 120.5,82.1667 120.5,81.8333 120.5,81.5C 120.5,80.8333 120.5,80.1667 120.5,79.5C 120.5,79.1667 120.5,78.8333 120.5,78.5C 120.5,77.8333 120.5,77.1667 120.5,76.5C 120.833,76.5 121.167,76.5 121.5,76.5C 121.5,83.8333 121.5,91.1667 121.5,98.5C 122.833,98.5 124.167,98.5 125.5,98.5C 125.5,99.5 125.5,100.5 125.5,101.5C 124.265,101.279 123.265,100.612 122.5,99.5C 121.548,101.045 121.215,102.712 121.5,104.5C 123.167,104.5 124.833,104.5 126.5,104.5C 127.167,104.5 127.833,104.5 128.5,104.5C 129.833,104.5 130.5,103.833 130.5,102.5C 130.5,102.167 130.5,101.833 130.5,101.5C 130.5,101.167 130.5,100.833 130.5,100.5C 132.717,101.369 135.05,101.702 137.5,101.5C 137.5,100.5 137.5,99.5 137.5,98.5C 137.5,97.8333 137.5,97.1667 137.5,96.5C 137.5,95.8333 137.5,95.1667 137.5,94.5C 137.5,94.1667 137.5,93.8333 137.5,93.5C 137.5,92.8333 137.5,92.1667 137.5,91.5C 137.5,91.1667 137.5,90.8333 137.5,90.5C 137.5,89.8333 137.5,89.1667 137.5,88.5C 137.5,88.1667 137.5,87.8333 137.5,87.5C 137.5,86.8333 137.5,86.1667 137.5,85.5C 137.5,85.1667 137.5,84.8333 137.5,84.5C 137.5,83.8333 137.5,83.1667 137.5,82.5C 137.5,82.1667 137.5,81.8333 137.5,81.5C 137.5,80.8333 137.5,80.1667 137.5,79.5C 137.5,79.1667 137.5,78.8333 137.5,78.5C 137.5,77.8333 137.5,77.1667 137.5,76.5C 137.5,74.8333 137.5,73.1667 137.5,71.5C 138.167,71.5 138.5,71.8333 138.5,72.5C 138.187,75.2469 138.52,77.9135 139.5,80.5C 140.172,79.0508 140.839,77.7175 141.5,76.5C 142.11,77.391 142.443,78.391 142.5,79.5C 141.665,80.9432 140.332,81.9432 138.5,82.5C 140.415,82.3163 142.415,82.6497 144.5,83.5C 144.5,83.8333 144.5,84.1667 144.5,84.5C 142.5,84.5 140.5,84.5 138.5,84.5C 138.5,86.1667 138.5,87.8333 138.5,89.5C 138.5,92.5 138.5,95.5 138.5,98.5C 139.833,98.5 141.167,98.5 142.5,98.5C 142.5,99.8333 142.5,101.167 142.5,102.5C 137.167,103.167 137.167,103.833 142.5,104.5C 142.338,106.527 142.505,108.527 143,110.5C 143.977,109.226 144.811,109.226 145.5,110.5C 145.5,111.167 145.5,111.833 145.5,112.5C 144.85,112.196 144.183,111.863 143.5,111.5C 142.52,114.086 142.187,116.753 142.5,119.5C 132.193,139.827 115.526,148.994 92.5,147C 61.0718,138.336 48.2385,117.836 54,85.5C 56.4276,77.6232 60.5943,70.9566 66.5,65.5C 68.1788,65.7148 69.1788,65.0481 69.5,63.5C 69.5,62.8333 69.8333,62.5 70.5,62.5C 70.281,63.675 70.6143,64.675 71.5,65.5C 72.4519,63.9547 72.7852,62.288 72.5,60.5C 82.7185,53.4464 94.0518,50.7797 106.5,52.5 Z"></path></g>
<g><path style="opacity:1" fill="#D8E0EB" d="M 101.5,135.5 C 103.337,135.639 103.67,136.306 102.5,137.5C 101.702,137.043 101.369,136.376 101.5,135.5 Z"></path></g>
<g><path style="opacity:1" fill="#D6DFEA" d="M 101.5,129.5 C 103.337,129.639 103.67,130.306 102.5,131.5C 101.702,131.043 101.369,130.376 101.5,129.5 Z"></path></g>
<g><path style="opacity:1" fill="#DAE2EC" d="M 128.5,126.5 C 130.337,126.639 130.67,127.306 129.5,128.5C 128.702,128.043 128.369,127.376 128.5,126.5 Z"></path></g>
<g><path style="opacity:1" fill="#92A7C6" d="M 97.5,126.5 C 99.604,126.201 101.604,126.534 103.5,127.5C 102.5,127.833 101.5,128.167 100.5,128.5C 98.9704,128.36 97.9704,127.693 97.5,126.5 Z"></path></g>
<g><path style="opacity:1" fill="#D5DEEA" d="M 114.5,123.5 C 116.337,123.639 116.67,124.306 115.5,125.5C 114.702,125.043 114.369,124.376 114.5,123.5 Z"></path></g>
<g><path style="opacity:1" fill="#DEE6EE" d="M 104.5,123.5 C 106.337,123.639 106.67,124.306 105.5,125.5C 104.702,125.043 104.369,124.376 104.5,123.5 Z"></path></g>
<g><path style="opacity:1" fill="#DCE4ED" d="M 63.5,123.5 C 65.337,123.639 65.6704,124.306 64.5,125.5C 63.7025,125.043 63.3691,124.376 63.5,123.5 Z"></path></g>
<g><path style="opacity:1" fill="#DAE2EC" d="M 138.5,120.5 C 140.337,120.639 140.67,121.306 139.5,122.5C 138.702,122.043 138.369,121.376 138.5,120.5 Z"></path></g>
<g><path style="opacity:1" fill="#8FA3C5" d="M 131.5,120.5 C 133.604,120.201 135.604,120.534 137.5,121.5C 136.5,121.833 135.5,122.167 134.5,122.5C 132.97,122.36 131.97,121.693 131.5,120.5 Z"></path></g>
<g><path style="opacity:1" fill="#D8E0EB" d="M 128.5,120.5 C 130.337,120.639 130.67,121.306 129.5,122.5C 128.702,122.043 128.369,121.376 128.5,120.5 Z"></path></g>
<g><path style="opacity:1" fill="#90A5C5" d="M 114.5,120.5 C 116.604,120.201 118.604,120.534 120.5,121.5C 119.5,121.833 118.5,122.167 117.5,122.5C 115.97,122.36 114.97,121.693 114.5,120.5 Z"></path></g>
<g><path style="opacity:1" fill="#DCE4ED" d="M 104.5,120.5 C 105.833,120.5 106.5,121.167 106.5,122.5C 105.167,122.5 104.5,121.833 104.5,120.5 Z"></path></g>
<g><path style="opacity:1" fill="#D9E2EC" d="M 63.5,120.5 C 64.8333,120.5 65.5,121.167 65.5,122.5C 65.5,121.167 64.8333,120.5 63.5,120.5 Z"></path></g>
<g><path style="opacity:1" fill="#D9E1EB" d="M 138.5,117.5 C 140.337,117.639 140.67,118.306 139.5,119.5C 138.702,119.043 138.369,118.376 138.5,117.5 Z"></path></g>
<g><path style="opacity:1" fill="#D6DFEA" d="M 128.5,117.5 C 130.337,117.639 130.67,118.306 129.5,119.5C 128.702,119.043 128.369,118.376 128.5,117.5 Z"></path></g>
<g><path style="opacity:1" fill="#D4DEE9" d="M 113.5,118.5 C 113.158,119.338 112.492,119.672 111.5,119.5C 111.711,117.576 112.377,117.243 113.5,118.5 Z"></path></g>
<g><path style="opacity:1" fill="#DAE2EC" d="M 104.5,117.5 C 107.167,118.167 107.167,118.833 104.5,119.5C 104.5,118.833 104.5,118.167 104.5,117.5 Z"></path></g>
<g><path style="opacity:1" fill="#D1DBE8" d="M 103.5,117.5 C 103.361,119.337 102.694,119.67 101.5,118.5C 101.957,117.702 102.624,117.369 103.5,117.5 Z"></path></g>
<g><path style="opacity:1" fill="#C2CFE0" d="M 131.5,118.5 C 133.364,117.207 135.364,117.207 137.5,118.5C 135.473,118.527 133.473,118.527 131.5,118.5 Z"></path></g>
<g><path style="opacity:1" fill="#DBE3ED" d="M 60.5,117.5 C 62.337,117.639 62.6704,118.306 61.5,119.5C 60.7025,119.043 60.3691,118.376 60.5,117.5 Z"></path></g>
<g><path style="opacity:1" fill="#8A9EC1" d="M 90.5,114.5 C 91.5,114.5 92.5,114.5 93.5,114.5C 93.5,117.167 93.5,119.833 93.5,122.5C 92.325,122.719 91.325,122.386 90.5,121.5C 90.7982,119.202 90.7982,116.869 90.5,114.5 Z"></path></g>
<g><path style="opacity:1" fill="#D7E0EB" d="M 138.5,114.5 C 140.337,114.639 140.67,115.306 139.5,116.5C 138.702,116.043 138.369,115.376 138.5,114.5 Z"></path></g>
<g><path style="opacity:1" fill="#D5DFEA" d="M 128.5,114.5 C 130.337,114.639 130.67,115.306 129.5,116.5C 128.702,116.043 128.369,115.376 128.5,114.5 Z"></path></g>
<g><path style="opacity:1" fill="#6985B0" d="M 116.5,105.5 C 117.833,105.5 119.167,105.5 120.5,105.5C 120.5,110.167 120.5,114.833 120.5,119.5C 119.167,119.5 117.833,119.5 116.5,119.5C 116.5,114.833 116.5,110.167 116.5,105.5 Z"></path></g>
<g><path style="opacity:1" fill="#D3DCE9" d="M 111.5,114.5 C 113.337,114.639 113.67,115.306 112.5,116.5C 111.702,116.043 111.369,115.376 111.5,114.5 Z"></path></g>
<g><path style="opacity:1" fill="#D1DBE7" d="M 103.5,116.5 C 102.833,116.5 102.167,116.5 101.5,116.5C 102.167,113.833 102.833,113.833 103.5,116.5 Z"></path></g>
<g><path style="opacity:1" fill="#7B91B9" d="M 72.5,114.5 C 74.1788,114.285 75.1788,114.952 75.5,116.5C 76.1098,117.391 76.4431,118.391 76.5,119.5C 74.6693,118.948 73.0026,118.948 71.5,119.5C 70.6143,118.675 70.281,117.675 70.5,116.5C 71.8333,116.5 72.5,115.833 72.5,114.5 Z"></path></g>
<g><path style="opacity:1" fill="#95A8C8" d="M 63.5,114.5 C 71.3011,114.706 71.3011,115.372 63.5,116.5C 63.5,115.833 63.5,115.167 63.5,114.5 Z"></path></g>
<g><path style="opacity:1" fill="#C2CEDF" d="M 131.5,115.5 C 133.364,114.207 135.364,114.207 137.5,115.5C 135.473,115.527 133.473,115.527 131.5,115.5 Z"></path></g>
<g><path style="opacity:1" fill="#E0E7EF" d="M 79.5,114.5 C 79.2893,116.424 78.6226,116.757 77.5,115.5C 77.8417,114.662 78.5084,114.328 79.5,114.5 Z"></path></g>
<g><path style="opacity:1" fill="#DBE3ED" d="M 60.5,114.5 C 62.337,114.639 62.6704,115.306 61.5,116.5C 60.7025,116.043 60.3691,115.376 60.5,114.5 Z"></path></g>
<g><path style="opacity:1" fill="#D6DFEA" d="M 138.5,111.5 C 140.337,111.639 140.67,112.306 139.5,113.5C 138.702,113.043 138.369,112.376 138.5,111.5 Z"></path></g>
<g><path style="opacity:1" fill="#D4DDE9" d="M 128.5,111.5 C 130.337,111.639 130.67,112.306 129.5,113.5C 128.702,113.043 128.369,112.376 128.5,111.5 Z"></path></g>
<g><path style="opacity:1" fill="#D8E0EB" d="M 121.5,111.5 C 123.337,111.639 123.67,112.306 122.5,113.5C 121.702,113.043 121.369,112.376 121.5,111.5 Z"></path></g>
<g><path style="opacity:1" fill="#CED9E6" d="M 94.5,111.5 C 96.337,111.639 96.6704,112.306 95.5,113.5C 94.7025,113.043 94.3691,112.376 94.5,111.5 Z"></path></g>
<g><path style="opacity:1" fill="#D3DCE8" d="M 80.5,111.5 C 82.337,111.639 82.6704,112.306 81.5,113.5C 80.7025,113.043 80.3691,112.376 80.5,111.5 Z"></path></g>
<g><path style="opacity:1" fill="#3E6099" d="M 69.5,109.5 C 69.8333,109.5 70.1667,109.5 70.5,109.5C 70.238,110.978 70.5713,112.311 71.5,113.5C 74.1495,113.289 76.8162,113.289 79.5,113.5C 79.5,113.833 79.5,114.167 79.5,114.5C 78.5084,114.328 77.8417,114.662 77.5,115.5C 76.8333,115.833 76.1667,116.167 75.5,116.5C 75.1788,114.952 74.1788,114.285 72.5,114.5C 71.1667,114.5 70.5,115.167 70.5,116.5C 70.281,117.675 70.6143,118.675 71.5,119.5C 73.0026,118.948 74.6693,118.948 76.5,119.5C 76.7373,120.791 76.404,121.791 75.5,122.5C 74.8333,119.833 74.1667,119.833 73.5,122.5C 73.1667,122.5 72.8333,122.5 72.5,122.5C 71.8333,119.833 71.1667,119.833 70.5,122.5C 68.8333,122.5 67.1667,122.5 65.5,122.5C 65.5,121.167 64.8333,120.5 63.5,120.5C 63.5,119.167 63.5,117.833 63.5,116.5C 71.3011,115.372 71.3011,114.706 63.5,114.5C 63.5,114.167 63.5,113.833 63.5,113.5C 71.3011,112.372 71.3011,111.706 63.5,111.5C 63.5,111.167 63.5,110.833 63.5,110.5C 65.6208,110.675 67.6208,110.341 69.5,109.5 Z"></path></g>
<g><path style="opacity:1" fill="#CCD6E5" d="M 75.5,122.5 C 74.8333,122.5 74.1667,122.5 73.5,122.5C 74.1667,119.833 74.8333,119.833 75.5,122.5 Z"></path></g>
<g><path style="opacity:1" fill="#DBE3EC" d="M 72.5,122.5 C 71.8333,122.5 71.1667,122.5 70.5,122.5C 71.1667,119.833 71.8333,119.833 72.5,122.5 Z"></path></g>
<g><path style="opacity:1" fill="#D7E0EB" d="M 72.5,114.5 C 72.5,115.833 71.8333,116.5 70.5,116.5C 70.5,115.167 71.1667,114.5 72.5,114.5 Z"></path></g>
<g><path style="opacity:1" fill="#94A8C7" d="M 63.5,111.5 C 71.3011,111.706 71.3011,112.372 63.5,113.5C 63.5,112.833 63.5,112.167 63.5,111.5 Z"></path></g>
<g><path style="opacity:1" fill="#DAE2EC" d="M 60.5,111.5 C 62.337,111.639 62.6704,112.306 61.5,113.5C 60.7025,113.043 60.3691,112.376 60.5,111.5 Z"></path></g>
<g><path style="opacity:1" fill="#A2B3CF" d="M 131.5,108.5 C 133.048,108.821 133.715,109.821 133.5,111.5C 134.978,111.238 136.311,111.571 137.5,112.5C 136.033,112.723 134.533,113.056 133,113.5C 131.731,112.095 131.231,110.429 131.5,108.5 Z"></path></g>
<g><path style="opacity:1" fill="#D8E1EB" d="M 121.5,108.5 C 123.337,108.639 123.67,109.306 122.5,110.5C 121.702,110.043 121.369,109.376 121.5,108.5 Z"></path></g>
<g><path style="opacity:1" fill="#D8E0EB" d="M 104.5,108.5 C 106.337,108.639 106.67,109.306 105.5,110.5C 104.702,110.043 104.369,109.376 104.5,108.5 Z"></path></g>
<g><path style="opacity:1" fill="#B6C5D9" d="M 96.5,108.5 C 96.6309,109.376 96.2975,110.043 95.5,110.5C 94.2736,109.637 92.9403,109.637 91.5,110.5C 92.5521,108.744 94.2188,108.077 96.5,108.5 Z"></path></g>
<g><path style="opacity:1" fill="#D7E0EA" d="M 87.5,108.5 C 88.8333,108.5 89.5,109.167 89.5,110.5C 89.5,109.167 88.8333,108.5 87.5,108.5 Z"></path></g>
<g><path style="opacity:1" fill="#94A8C8" d="M 69.5,109.5 C 67.6208,110.341 65.6208,110.675 63.5,110.5C 63.9704,109.307 64.9704,108.64 66.5,108.5C 67.7261,108.52 68.7261,108.853 69.5,109.5 Z"></path></g>
<g><path style="opacity:1" fill="#DBE3EC" d="M 60.5,108.5 C 62.337,108.639 62.6704,109.306 61.5,110.5C 60.7025,110.043 60.3691,109.376 60.5,108.5 Z"></path></g>
<g><path style="opacity:1" fill="#D6DFEA" d="M 121.5,105.5 C 123.337,105.639 123.67,106.306 122.5,107.5C 121.702,107.043 121.369,106.376 121.5,105.5 Z"></path></g>
<g><path style="opacity:1" fill="#C5D1E1" d="M 116.5,105.5 C 116.5,110.167 116.5,114.833 116.5,119.5C 115.508,119.672 114.842,119.338 114.5,118.5C 114.527,114.527 114.527,110.527 114.5,106.5C 114.957,105.702 115.624,105.369 116.5,105.5 Z"></path></g>
<g><path style="opacity:1" fill="#D6DFEA" d="M 104.5,105.5 C 106.337,105.639 106.67,106.306 105.5,107.5C 104.702,107.043 104.369,106.376 104.5,105.5 Z"></path></g>
<g><path style="opacity:1" fill="#B5C4D9" d="M 96.5,105.5 C 96.5,106.167 96.5,106.833 96.5,107.5C 94.7753,106.722 93.1086,106.389 91.5,106.5C 93.0453,105.548 94.712,105.215 96.5,105.5 Z"></path></g>
<g><path style="opacity:1" fill="#D6DFEA" d="M 87.5,105.5 C 90.1667,106.167 90.1667,106.833 87.5,107.5C 87.5,106.833 87.5,106.167 87.5,105.5 Z"></path></g>
<g><path style="opacity:1" fill="#768FB7" d="M 86.5,93.5 C 86.5,94.8333 86.5,96.1667 86.5,97.5C 86.5,101.833 86.5,106.167 86.5,110.5C 84.396,110.799 82.396,110.466 80.5,109.5C 85.6817,108.224 85.6817,107.557 80.5,107.5C 80.5,105.833 80.5,104.167 80.5,102.5C 85.8333,102.167 85.8333,101.833 80.5,101.5C 80.5,98.8333 80.5,96.1667 80.5,93.5C 82.5,93.5 84.5,93.5 86.5,93.5 Z"></path></g>
<g><path style="opacity:1" fill="#8296BC" d="M 79.5,113.5 C 76.8162,113.289 74.1495,113.289 71.5,113.5C 70.5713,112.311 70.238,110.978 70.5,109.5C 70.5,108.167 70.5,106.833 70.5,105.5C 73.5,105.5 76.5,105.5 79.5,105.5C 79.5,108.167 79.5,110.833 79.5,113.5 Z"></path></g>
<g><path style="opacity:1" fill="#93A8C7" d="M 63.5,105.5 C 65.5273,105.338 67.5273,105.505 69.5,106C 67.1209,108.142 65.1209,107.976 63.5,105.5 Z"></path></g>
<g><path style="opacity:1" fill="#DAE2EC" d="M 60.5,105.5 C 62.337,105.639 62.6704,106.306 61.5,107.5C 60.7025,107.043 60.3691,106.376 60.5,105.5 Z"></path></g>
<g><path style="opacity:1" fill="#D1DBE7" d="M 130.5,102.5 C 130.5,103.833 129.833,104.5 128.5,104.5C 128.5,103.167 129.167,102.5 130.5,102.5 Z"></path></g>
<g><path style="opacity:1" fill="#D4DEE9" d="M 104.5,102.5 C 106.337,102.639 106.67,103.306 105.5,104.5C 104.702,104.043 104.369,103.376 104.5,102.5 Z"></path></g>
<g><path style="opacity:1" fill="#B3C3D8" d="M 96.5,102.5 C 96.5,103.167 96.5,103.833 96.5,104.5C 94.7753,103.722 93.1086,103.389 91.5,103.5C 93.0453,102.548 94.712,102.215 96.5,102.5 Z"></path></g>
<g><path style="opacity:1" fill="#D4DDE9" d="M 87.5,102.5 C 90.1667,103.167 90.1667,103.833 87.5,104.5C 87.5,103.833 87.5,103.167 87.5,102.5 Z"></path></g>
<g><path style="opacity:1" fill="#92A6C6" d="M 63.5,102.5 C 65.5273,102.338 67.5273,102.505 69.5,103C 67.1209,105.142 65.1209,104.976 63.5,102.5 Z"></path></g>
<g><path style="opacity:1" fill="#D7E0EA" d="M 135.5,102.5 C 137.337,102.639 137.67,103.306 136.5,104.5C 135.702,104.043 135.369,103.376 135.5,102.5 Z"></path></g>
<g><path style="opacity:1" fill="#BECCDE" d="M 120.5,102.5 C 120.5,103.167 120.5,103.833 120.5,104.5C 118.914,103.587 117.414,103.587 116,104.5C 115.5,104 115,103.5 114.5,103C 116.473,102.505 118.473,102.338 120.5,102.5 Z"></path></g>
<g><path style="opacity:1" fill="#DEE5EE" d="M 77.5,102.5 C 79.337,102.639 79.6704,103.306 78.5,104.5C 77.7025,104.043 77.3691,103.376 77.5,102.5 Z"></path></g>
<g><path style="opacity:1" fill="#889BC0" d="M 125.5,101.5 C 125.918,102.222 126.584,102.722 127.5,103C 126.944,103.383 126.611,103.883 126.5,104.5C 124.833,104.5 123.167,104.5 121.5,104.5C 121.215,102.712 121.548,101.045 122.5,99.5C 123.265,100.612 124.265,101.279 125.5,101.5 Z"></path></g>
<g><path style="opacity:1" fill="#CFDAE6" d="M 130.5,100.5 C 130.5,100.833 130.5,101.167 130.5,101.5C 129.624,101.631 128.957,101.298 128.5,100.5C 129.257,99.2267 129.923,99.2267 130.5,100.5 Z"></path></g>
<g><path style="opacity:1" fill="#D3DDE8" d="M 104.5,99.5 C 106.337,99.6395 106.67,100.306 105.5,101.5C 104.702,101.043 104.369,100.376 104.5,99.5 Z"></path></g>
<g><path style="opacity:1" fill="#D3DCE8" d="M 87.5,99.5 C 90.1667,100.167 90.1667,100.833 87.5,101.5C 87.5,100.833 87.5,100.167 87.5,99.5 Z"></path></g>
<g><path style="opacity:1" fill="#BECCDE" d="M 120.5,99.5 C 120.5,100.167 120.5,100.833 120.5,101.5C 118.914,100.587 117.414,100.587 116,101.5C 115.5,101 115,100.5 114.5,100C 116.473,99.5045 118.473,99.3379 120.5,99.5 Z"></path></g>
<g><path style="opacity:1" fill="#DDE4EE" d="M 77.5,99.5 C 79.337,99.6395 79.6704,100.306 78.5,101.5C 77.7025,101.043 77.3691,100.376 77.5,99.5 Z"></path></g>
<g><path style="opacity:1" fill="#CED9E6" d="M 128.5,96.5 C 130.337,96.6395 130.67,97.3061 129.5,98.5C 128.702,98.0431 128.369,97.3764 128.5,96.5 Z"></path></g>
<g><path style="opacity:1" fill="#385E97" d="M 89.5,90.5 C 89.8333,90.5 90.1667,90.5 90.5,90.5C 91.2192,92.3173 92.2192,92.9839 93.5,92.5C 92.624,93.2508 91.624,93.7508 90.5,94C 91.2529,95.487 92.0862,95.6537 93,94.5C 93.1667,94.8333 93.3333,95.1667 93.5,95.5C 92.624,96.2508 91.624,96.7508 90.5,97C 91.4706,98.2036 92.4706,98.7036 93.5,98.5C 92.624,99.2508 91.624,99.7508 90.5,100C 91,100.5 91.5,101 92,101.5C 93.4139,100.587 94.9139,100.587 96.5,101.5C 96.5,101.833 96.5,102.167 96.5,102.5C 94.712,102.215 93.0453,102.548 91.5,103.5C 93.1086,103.389 94.7753,103.722 96.5,104.5C 96.5,104.833 96.5,105.167 96.5,105.5C 94.712,105.215 93.0453,105.548 91.5,106.5C 93.1086,106.389 94.7753,106.722 96.5,107.5C 96.5,107.833 96.5,108.167 96.5,108.5C 94.2188,108.077 92.5521,108.744 91.5,110.5C 90.8333,110.5 90.1667,110.5 89.5,110.5C 89.5,109.167 88.8333,108.5 87.5,108.5C 87.5,108.167 87.5,107.833 87.5,107.5C 90.1667,106.833 90.1667,106.167 87.5,105.5C 87.5,105.167 87.5,104.833 87.5,104.5C 90.1667,103.833 90.1667,103.167 87.5,102.5C 87.5,102.167 87.5,101.833 87.5,101.5C 90.1667,100.833 90.1667,100.167 87.5,99.5C 87.5,99.1667 87.5,98.8333 87.5,98.5C 88.3764,98.6309 89.0431,98.2975 89.5,97.5C 88.7435,96.2267 88.0768,96.2267 87.5,97.5C 87.1667,97.5 86.8333,97.5 86.5,97.5C 86.5,96.1667 86.5,94.8333 86.5,93.5C 86.8333,93.5 87.1667,93.5 87.5,93.5C 87.5,93.1667 87.5,92.8333 87.5,92.5C 88.8333,92.5 89.5,91.8333 89.5,90.5 Z"></path></g>
<g><path style="opacity:1" fill="#D1DBE7" d="M 87.5,98.5 C 87.5,98.1667 87.5,97.8333 87.5,97.5C 88.0768,96.2267 88.7435,96.2267 89.5,97.5C 89.0431,98.2975 88.3764,98.6309 87.5,98.5 Z"></path></g>
<g><path style="opacity:1" fill="#BFCCDE" d="M 137.5,96.5 C 137.5,97.1667 137.5,97.8333 137.5,98.5C 135.914,97.5868 134.414,97.5868 133,98.5C 132.5,98 132,97.5 131.5,97C 133.473,96.5045 135.473,96.3379 137.5,96.5 Z"></path></g>
<g><path style="opacity:1" fill="#AFBFD6" d="M 120.5,96.5 C 120.5,96.8333 120.5,97.1667 120.5,97.5C 119.064,97.7546 117.564,98.0879 116,98.5C 115.5,98 115,97.5 114.5,97C 116.473,96.5045 118.473,96.3379 120.5,96.5 Z"></path></g>
<g><path style="opacity:1" fill="#DCE4ED" d="M 77.5,96.5 C 79.337,96.6395 79.6704,97.3061 78.5,98.5C 77.7025,98.0431 77.3691,97.3764 77.5,96.5 Z"></path></g>
<g><path style="opacity:1" fill="#CDD8E6" d="M 128.5,93.5 C 130.337,93.6395 130.67,94.3061 129.5,95.5C 128.702,95.0431 128.369,94.3764 128.5,93.5 Z"></path></g>
<g><path style="opacity:1" fill="#C6D2E2" d="M 97.5,93.5 C 99.4364,97.7147 100.103,102.381 99.5,107.5C 99.5,110.5 99.5,113.5 99.5,116.5C 98.6236,116.631 97.9569,116.298 97.5,115.5C 98.362,108.265 98.362,100.931 97.5,93.5 Z"></path></g>
<g><path style="opacity:1" fill="#D0DAE7" d="M 87.5,93.5 C 89.337,93.6395 89.6704,94.3061 88.5,95.5C 87.7025,95.0431 87.3691,94.3764 87.5,93.5 Z"></path></g>
<g><path style="opacity:1" fill="#AEBED5" d="M 137.5,93.5 C 137.5,93.8333 137.5,94.1667 137.5,94.5C 136.064,94.7546 134.564,95.0879 133,95.5C 132.5,95 132,94.5 131.5,94C 133.473,93.5045 135.473,93.3379 137.5,93.5 Z"></path></g>
<g><path style="opacity:1" fill="#AFBFD6" d="M 120.5,93.5 C 120.5,93.8333 120.5,94.1667 120.5,94.5C 119.064,94.7546 117.564,95.0879 116,95.5C 115.5,95 115,94.5 114.5,94C 116.473,93.5045 118.473,93.3379 120.5,93.5 Z"></path></g>
<g><path style="opacity:1" fill="#94A7C7" d="M 74.5,92.5 C 76.3117,92.7713 77.9783,93.438 79.5,94.5C 78.1667,94.8333 76.8333,95.1667 75.5,95.5C 73.4807,94.8671 73.1474,93.8671 74.5,92.5 Z"></path></g>
<g><path style="opacity:1" fill="#6984B0" d="M 103.5,99.5 C 103.5,102.167 103.5,104.833 103.5,107.5C 102.167,107.5 100.833,107.5 99.5,107.5C 100.103,102.381 99.4364,97.7147 97.5,93.5C 97.5,92.5 97.5,91.5 97.5,90.5C 99.5,90.5 101.5,90.5 103.5,90.5C 103.5,93.5 103.5,96.5 103.5,99.5 Z"></path></g>
<g><path style="opacity:1" fill="#CCD7E5" d="M 128.5,90.5 C 130.337,90.6395 130.67,91.3061 129.5,92.5C 128.702,92.0431 128.369,91.3764 128.5,90.5 Z"></path></g>
<g><path style="opacity:1" fill="#CFDAE6" d="M 89.5,90.5 C 89.5,91.8333 88.8333,92.5 87.5,92.5C 87.5,91.1667 88.1667,90.5 89.5,90.5 Z"></path></g>
<g><path style="opacity:1" fill="#AEBFD6" d="M 137.5,90.5 C 137.5,90.8333 137.5,91.1667 137.5,91.5C 136.064,91.7546 134.564,92.0879 133,92.5C 132.5,92 132,91.5 131.5,91C 133.473,90.5045 135.473,90.3379 137.5,90.5 Z"></path></g>
<g><path style="opacity:1" fill="#AFBFD6" d="M 120.5,90.5 C 120.5,90.8333 120.5,91.1667 120.5,91.5C 119.064,91.7546 117.564,92.0879 116,92.5C 115.5,92 115,91.5 114.5,91C 116.473,90.5045 118.473,90.3379 120.5,90.5 Z"></path></g>
<g><path style="opacity:1" fill="#CAD6E4" d="M 128.5,87.5 C 130.337,87.6395 130.67,88.3061 129.5,89.5C 128.702,89.0431 128.369,88.3764 128.5,87.5 Z"></path></g>
<g><path style="opacity:1" fill="#728BB5" d="M 82.5,81.5 C 83.4674,82.8062 84.8007,83.4729 86.5,83.5C 86.5,85.5 86.5,87.5 86.5,89.5C 84.5,89.5 82.5,89.5 80.5,89.5C 80.5,87.5 80.5,85.5 80.5,83.5C 81.8333,83.5 82.5,82.8333 82.5,81.5 Z"></path></g>
<g><path style="opacity:1" fill="#ACBDD5" d="M 73.5,88.5 C 75.3635,87.2072 77.3635,87.2072 79.5,88.5C 77.62,88.9298 75.62,88.9298 73.5,88.5 Z"></path></g>
<g><path style="opacity:1" fill="#AEBFD5" d="M 137.5,87.5 C 137.5,87.8333 137.5,88.1667 137.5,88.5C 136.064,88.7546 134.564,89.0879 133,89.5C 132.5,89 132,88.5 131.5,88C 133.473,87.5045 135.473,87.3379 137.5,87.5 Z"></path></g>
<g><path style="opacity:1" fill="#AFBFD6" d="M 120.5,87.5 C 120.5,87.8333 120.5,88.1667 120.5,88.5C 119.064,88.7546 117.564,89.0879 116,89.5C 115.5,89 115,88.5 114.5,88C 116.473,87.5045 118.473,87.3379 120.5,87.5 Z"></path></g>
<g><path style="opacity:1" fill="#AFC0D6" d="M 97.5,88.5 C 99.2884,87.3775 101.288,87.2109 103.5,88C 103,88.5 102.5,89 102,89.5C 100.436,89.0879 98.9361,88.7546 97.5,88.5 Z"></path></g>
<g><path style="opacity:1" fill="#C9D5E4" d="M 128.5,84.5 C 130.337,84.6395 130.67,85.3061 129.5,86.5C 128.702,86.0431 128.369,85.3764 128.5,84.5 Z"></path></g>
<g><path style="opacity:1" fill="#7C92B9" d="M 104.5,98.5 C 104.5,94.1667 104.5,89.8333 104.5,85.5C 107.287,84.5233 110.287,84.19 113.5,84.5C 113.5,94.1667 113.5,103.833 113.5,113.5C 111.396,113.799 109.396,113.466 107.5,112.5C 108.443,107.9 108.777,103.233 108.5,98.5C 107.167,98.5 105.833,98.5 104.5,98.5 Z"></path></g>
<g><path style="opacity:1" fill="#C0CDDF" d="M 77.5,84.5 C 79.337,84.6395 79.6704,85.3061 78.5,86.5C 77.7025,86.0431 77.3691,85.3764 77.5,84.5 Z"></path></g>
<g><path style="opacity:1" fill="#CCD8E5" d="M 70.5,84.5 C 72.337,84.6395 72.6704,85.3061 71.5,86.5C 70.7025,86.0431 70.3691,85.3764 70.5,84.5 Z"></path></g>
<g><path style="opacity:1" fill="#AEBED5" d="M 137.5,84.5 C 137.5,84.8333 137.5,85.1667 137.5,85.5C 136.064,85.7546 134.564,86.0879 133,86.5C 132.5,86 132,85.5 131.5,85C 133.473,84.5045 135.473,84.3379 137.5,84.5 Z"></path></g>
<g><path style="opacity:1" fill="#AEBFD6" d="M 120.5,84.5 C 120.5,84.8333 120.5,85.1667 120.5,85.5C 119.064,85.7546 117.564,86.0879 116,86.5C 115.5,86 115,85.5 114.5,85C 116.473,84.5045 118.473,84.3379 120.5,84.5 Z"></path></g>
<g><path style="opacity:1" fill="#A6B8D1" d="M 97.5,81.5 C 99.0481,81.8212 99.7148,82.8212 99.5,84.5C 101.099,84.2322 102.432,84.5655 103.5,85.5C 102.064,85.7546 100.564,86.0879 99,86.5C 97.7308,85.0953 97.2308,83.4286 97.5,81.5 Z"></path></g>
<g><path style="opacity:1" fill="#C8D4E3" d="M 128.5,81.5 C 130.337,81.6395 130.67,82.3061 129.5,83.5C 128.702,83.0431 128.369,82.3764 128.5,81.5 Z"></path></g>
<g><path style="opacity:1" fill="#899CC0" d="M 96.5,101.5 C 94.9139,100.587 93.4139,100.587 92,101.5C 91.5,101 91,100.5 90.5,100C 91.624,99.7508 92.624,99.2508 93.5,98.5C 92.4706,98.7036 91.4706,98.2036 90.5,97C 91.624,96.7508 92.624,96.2508 93.5,95.5C 93.3333,95.1667 93.1667,94.8333 93,94.5C 92.0862,95.6537 91.2529,95.487 90.5,94C 91.624,93.7508 92.624,93.2508 93.5,92.5C 92.2192,92.9839 91.2192,92.3173 90.5,90.5C 89.3717,85.3101 91.3717,82.3101 96.5,81.5C 96.5,88.1667 96.5,94.8333 96.5,101.5 Z"></path></g>
<g><path style="opacity:1" fill="#AABBD3" d="M 73.5,82.5 C 75.3635,81.2072 77.3635,81.2072 79.5,82.5C 77.62,82.9298 75.62,82.9298 73.5,82.5 Z"></path></g>
<g><path style="opacity:1" fill="#CAD6E4" d="M 70.5,81.5 C 72.337,81.6395 72.6704,82.3061 71.5,83.5C 70.7025,83.0431 70.3691,82.3764 70.5,81.5 Z"></path></g>
<g><path style="opacity:1" fill="#AEBED5" d="M 137.5,81.5 C 137.5,81.8333 137.5,82.1667 137.5,82.5C 136.064,82.7546 134.564,83.0879 133,83.5C 132.5,83 132,82.5 131.5,82C 133.473,81.5045 135.473,81.3379 137.5,81.5 Z"></path></g>
<g><path style="opacity:1" fill="#AEBFD6" d="M 120.5,81.5 C 120.5,81.8333 120.5,82.1667 120.5,82.5C 119.064,82.7546 117.564,83.0879 116,83.5C 115.5,83 115,82.5 114.5,82C 116.473,81.5045 118.473,81.3379 120.5,81.5 Z"></path></g>
<g><path style="opacity:1" fill="#C7D3E2" d="M 128.5,78.5 C 130.337,78.6395 130.67,79.3061 129.5,80.5C 128.702,80.0431 128.369,79.3764 128.5,78.5 Z"></path></g>
<g><path style="opacity:1" fill="#C2CFE0" d="M 94.5,78.5 C 96.337,78.6395 96.6704,79.3061 95.5,80.5C 94.7025,80.0431 94.3691,79.3764 94.5,78.5 Z"></path></g>
<g><path style="opacity:1" fill="#CAD6E4" d="M 70.5,78.5 C 72.337,78.6395 72.6704,79.3061 71.5,80.5C 70.7025,80.0431 70.3691,79.3764 70.5,78.5 Z"></path></g>
<g><path style="opacity:1" fill="#ADBED5" d="M 137.5,78.5 C 137.5,78.8333 137.5,79.1667 137.5,79.5C 136.064,79.7546 134.564,80.0879 133,80.5C 132.5,80 132,79.5 131.5,79C 133.473,78.5045 135.473,78.3379 137.5,78.5 Z"></path></g>
<g><path style="opacity:1" fill="#AFC0D6" d="M 120.5,78.5 C 120.5,78.8333 120.5,79.1667 120.5,79.5C 119.064,79.7546 117.564,80.0879 116,80.5C 115.5,80 115,79.5 114.5,79C 116.473,78.5045 118.473,78.3379 120.5,78.5 Z"></path></g>
<g><path style="opacity:1" fill="#D1DBE7" d="M 73.5,79.5 C 74.2506,78.4265 75.2506,78.2599 76.5,79C 75.6477,80.7284 74.6477,80.895 73.5,79.5 Z"></path></g>
<g><path style="opacity:1" fill="#C7D3E2" d="M 128.5,75.5 C 130.337,75.6395 130.67,76.3061 129.5,77.5C 128.702,77.0431 128.369,76.3764 128.5,75.5 Z"></path></g>
<g><path style="opacity:1" fill="#A4B6D0" d="M 120.5,76.5 C 119.064,76.7546 117.564,77.0879 116,77.5C 115.5,77 115,76.5 114.5,76C 115.793,75.51 117.127,75.3433 118.5,75.5C 118.281,74.325 118.614,73.325 119.5,72.5C 120.429,73.6888 120.762,75.0222 120.5,76.5 Z"></path></g>
<g><path style="opacity:1" fill="#8A9FC2" d="M 103.5,75.5 C 103.785,77.288 103.452,78.9547 102.5,80.5C 101.702,80.0431 101.369,79.3764 101.5,78.5C 101.5,77.1667 101.5,75.8333 101.5,74.5C 100.167,74.5 98.8333,74.5 97.5,74.5C 97.5,72.8333 97.5,71.1667 97.5,69.5C 99.5,69.5 101.5,69.5 103.5,69.5C 103.5,71.5 103.5,73.5 103.5,75.5 Z"></path></g>
<g><path style="opacity:1" fill="#B0C0D7" d="M 77.5,72.5 C 78.6491,72.7911 79.3158,73.6244 79.5,75C 79.1667,75.8333 78.8333,76.6667 78.5,77.5C 77.5481,75.9547 77.2148,74.288 77.5,72.5 Z"></path></g>
<g><path style="opacity:1" fill="#A6B8D1" d="M 82.5,81.5 C 82.5,82.8333 81.8333,83.5 80.5,83.5C 80.5,78.8333 80.5,74.1667 80.5,69.5C 82.5273,69.3379 84.5273,69.5045 86.5,70C 85.6753,71.6883 84.6753,71.8549 83.5,70.5C 82.5108,74.1073 82.1774,77.774 82.5,81.5 Z"></path></g>
<g><path style="opacity:1" fill="#B0C0D7" d="M 94.5,66.5 C 95.7479,67.3339 96.4146,68.6672 96.5,70.5C 96.1667,71.8333 95.8333,73.1667 95.5,74.5C 94.52,71.9135 94.1866,69.2469 94.5,66.5 Z"></path></g>
<g><path style="opacity:1" fill="#AFBFD6" d="M 97.5,67.5 C 99.2884,66.3775 101.288,66.2109 103.5,67C 103,67.5 102.5,68 102,68.5C 100.436,68.0879 98.9361,67.7546 97.5,67.5 Z"></path></g>
<g><path style="opacity:1" fill="#B7C7DA" d="M 77.5,63.5 C 79.337,63.6395 79.6704,64.3061 78.5,65.5C 77.7025,65.0431 77.3691,64.3764 77.5,63.5 Z"></path></g>
<g><path style="opacity:1" fill="#728BB5" d="M 100.5,57.5 C 101.5,57.5 102.5,57.5 103.5,57.5C 103.875,60.3965 103.375,63.0632 102,65.5C 101,64.1667 100,64.1667 99,65.5C 98.3076,64.9747 97.8076,64.3081 97.5,63.5C 100.745,62.3501 101.745,60.3501 100.5,57.5 Z"></path></g>
</svg>