<svg xmlns:xlink="http://www.w3.org/1999/xlink" xmlns="http://www.w3.org/2000/svg" width="124" height="124" viewBox="0 0 124 124" fill="none">
<mask id="mask0_923_12" style="mask-type:luminance" maskUnits="userSpaceOnUse" x="0" y="16" width="123" height="93">
<path d="M122.703 16.0253H0.492188V108.428H122.703V16.0253Z" fill="white"/>
</mask>
<g mask="url(#mask0_923_12)">
<path d="M113.463 16.0253C118.566 16.0253 122.703 20.1623 122.703 25.2656V99.188C122.703 104.291 118.566 108.428 113.463 108.428H9.73252C4.62922 108.428 0.492188 104.291 0.492188 99.188V25.2656C0.492188 20.1623 4.62922 16.0253 9.73249 16.0253H113.463ZM42.2943 51.1069C42.7203 47.0557 44.5425 43.2446 46.1981 39.5128C46.495 38.8435 46.8988 38.1177 47.6306 38.0944C48.5725 38.0645 49.7679 38.5432 50.3972 38.115C50.6725 37.927 51.6215 35.5717 52.1624 34.9416C52.3592 34.7139 52.7313 34.619 52.9423 34.3172C53.3886 33.6795 52.9263 31.8822 53.0307 30.9219C53.2336 29.0449 54.5264 28.4204 52.8637 26.3878C48.7034 21.2939 40.7189 23.1223 40.8267 29.8386C40.8282 29.9335 40.7922 30.0281 40.725 30.0953C40.6428 30.1776 40.5245 30.2123 40.4106 30.1885C35.3444 29.1324 30.0801 29.4572 24.9552 29.9729C24.4908 30.0621 24.5512 30.7568 24.1993 30.9219C23.8476 31.087 23.3792 30.939 23.0032 31.0035C21.9479 31.1857 20.2994 33.1424 19.5536 33.9471C18.2364 35.3712 16.9993 36.8722 15.7691 38.3758C14.1618 40.3403 11.9437 41.91 10.0143 43.5591C9.93415 43.6276 9.85086 43.6939 9.76357 43.7574C9.20068 44.1674 7.47185 44.7271 7.28692 45.0555C7.19446 45.2168 7.17635 45.3518 7.28692 45.511C7.96023 46.7326 8.76537 46.1172 7.81713 47.1401C7.40486 47.5848 7.41693 47.9529 8.57148 48.0847C10.3847 48.2914 13.2474 47.1927 14.2364 45.7121C14.7129 44.9966 14.735 44.0307 15.5391 43.4632L22.1313 38.1419C23.2901 37.2064 24.7144 36.6604 26.2016 36.5814L28.4143 36.7515C29.8116 36.8589 29.7011 37.7515 29.0823 39.0089C27.7294 41.7532 26.6901 47.3671 26.2961 50.4419C26.2117 51.1032 25.7845 54.4729 26.0229 55.2685C26.0564 55.3806 26.1748 55.4154 26.2912 55.4031C26.6111 55.3701 26.8792 55.6421 26.8504 55.9624C26.513 59.7186 27.0979 63.6405 27.9264 67.3123C28.1073 68.119 28.9597 71.7609 29.3095 72.205C29.6311 72.6132 30.3327 72.4955 30.4573 72.6661C30.6503 72.9319 31.0443 74.699 31.2374 75.2248C32.1374 77.6784 30.6381 80.4918 28.4787 81.9644C27.4643 82.6561 26.5125 83.4339 25.6307 84.1411C24.1531 85.3272 21.0412 88.6654 19.2923 88.8934C17.1976 89.1666 16.3673 87.9823 14.8214 87.9881C14.3832 87.9881 13.2072 88.3657 12.9639 88.6654C12.6986 88.9919 12.9097 89.4475 12.7388 89.8137C12.6021 90.1078 12.0553 90.2181 12.0151 90.3755C11.9126 90.7855 12.1116 91.188 11.8924 91.7403C11.7457 92.1121 9.9445 94.2663 9.52434 94.7976C9.35349 95.0123 8.94337 95.0539 8.84086 95.3671C8.6941 95.8113 9.00168 96.2172 8.9454 96.6577C8.87706 97.1909 8.30209 97.4736 8.32824 97.895C8.34432 98.1457 8.60364 98.3866 8.64586 98.6715C8.78056 99.6241 8.42674 100.869 10.0169 100.861C10.8914 100.858 11.7397 99.0451 12.3408 98.3656C17.7001 92.3095 29.8241 90.8274 37.0049 87.1737C37.2861 86.984 37.0733 86.5476 37.1897 86.3652C37.2802 86.2248 39.7508 85.1467 40.2575 84.8014C42.5592 83.2358 42.3643 81.4783 42.2937 78.9994L41.9023 72.9205C41.8887 72.7108 42.0076 72.5152 42.2001 72.4305C42.3994 72.3424 42.5192 72.1357 42.4958 71.9189L41.8502 65.9306C41.8326 65.7682 41.7695 65.6139 41.6682 65.4858L41.6192 65.4242C41.5736 65.3663 41.516 65.3195 41.4504 65.2862C40.9847 65.0506 41.1356 64.3622 41.6574 64.3514C46.1744 64.2587 50.6975 64.5128 55.2308 64.4284C55.5003 64.4235 55.7405 64.3341 55.8459 64.0862C55.885 63.9947 55.9294 63.8992 55.9879 63.8195C56.1976 63.5345 56.6307 63.6667 56.9837 63.6889C59.9957 63.8767 63.5015 63.5087 66.3771 63.8259C67.8404 63.987 68.4977 64.7349 69.6799 65.2437C73.1336 66.7277 78.2999 65.8622 82.0973 66.071C83.0401 66.1221 85.4947 66.367 86.3087 66.631C87.7462 67.0961 86.739 69.9445 88.3715 70.2787C88.7895 70.3641 90.5525 70.4913 90.8177 70.2313C91.0047 70.049 90.9908 69.6353 91.24 69.5632C91.5113 69.4835 92.0079 69.882 92.4261 69.6335C92.6331 69.5099 92.6975 69.007 92.9769 68.7907C93.202 68.618 97.0799 66.9421 97.3833 66.8891C97.9947 66.7828 98.3344 67.17 98.8146 66.5835C98.9273 66.4468 98.9575 66.1129 99.0015 66.0806C99.1565 65.9706 99.6893 66.3501 100.109 66.1563C100.22 66.1052 101.221 64.7995 101.225 64.6286C101.227 64.5531 101.221 64.4832 101.21 64.4179C101.044 63.4702 99.6632 63.5453 98.7012 63.5213C93.1989 63.3842 87.9332 62.459 82.7728 60.5937C80.1051 59.6296 74.9065 56.9117 72.4418 56.5738C72.0559 56.5208 71.855 56.8205 71.5273 56.8341C71.0548 56.8529 67.5549 56.462 66.9136 56.3613C65.7617 56.1793 63.6028 55.1373 62.1854 54.7766C60.9974 54.4741 59.7906 54.2449 58.5792 54.0438C57.8892 53.9292 57.5375 53.4564 57.0095 52.9972C56.9125 52.9128 56.7795 52.8426 56.591 52.7991L42.2943 51.1069ZM115.96 55.2112C115.96 51.6678 112.919 48.7962 109.166 48.7962C105.412 48.7962 102.371 51.6678 102.371 55.2112C102.371 58.7545 105.412 61.6261 109.166 61.6261C112.919 61.6261 115.96 58.7545 115.96 55.2112Z" fill="white"/>
</g>
</svg>