<svg xmlns:xlink="http://www.w3.org/1999/xlink" xmlns="http://www.w3.org/2000/svg" width="124" height="124" viewBox="0 0 124 124" fill="none">
<mask id="mask0_923_58" style="mask-type:luminance" maskUnits="userSpaceOnUse" x="11" y="2" width="101" height="121">
<path d="M111.439 2.11121H11.7617V122.31H111.439V2.11121Z" fill="white"/>
</mask>
<g mask="url(#mask0_923_58)">
<path d="M79.4397 28.0544C79.1525 26.1569 78.8799 24.2717 77.979 22.5308C83.8997 23.8096 89.4034 26.2475 93.9658 30.0516C94.4364 33.5579 95.6618 36.8723 97.2914 40.0303C92.9676 36.0619 88.0271 32.7138 82.6031 30.2067C82.1842 31.9661 82.0739 33.8881 80.9834 35.42C77.7972 33.2141 74.4458 30.9312 70.8443 29.3547C69.5395 28.7836 67.8612 29.2349 66.4492 29.5097C62.5734 30.265 58.886 31.8002 55.5589 33.7928L53.2994 35.5015L55.5766 37.4971C52.8126 38.5795 50.2451 39.935 48.2715 42.098C48.1369 42.2471 47.3333 43.1374 47.4646 43.2525L52.0076 43.8682C52.113 48.8346 57.3718 52.5788 62.3089 52.9304C67.9244 53.3309 73.9409 51.9817 79.2742 54.1522C79.5533 53.8959 77.0475 51.2509 76.7425 50.9453C75.6015 49.8046 71.6671 46.2184 70.3151 45.8179C68.275 45.213 65.4543 45.7166 63.2811 45.5631C60.7151 45.3804 58.675 44.0341 56.3897 43.099C56.3362 42.7997 56.6025 42.6629 56.8002 42.4911C58.2285 41.2461 62.5881 38.968 64.4821 38.8866C65.2514 38.8526 67.4928 39.7202 68.2961 40.0534C69.8917 40.7133 71.5177 41.6085 72.8877 42.6293C74.3598 41.4949 75.8091 40.4293 77.8134 40.3404C76.3641 41.7621 75.353 43.5611 76.3155 45.5171C78.9382 47.8027 81.3761 50.2607 83.653 52.8567C87.4444 51.3951 92.6106 50.7289 96.4783 52.238C97.0609 52.4652 97.3936 53.1374 97.9357 52.3916C97.1307 51.6731 96.3986 50.8747 95.5888 50.161C94.1897 48.928 91.3527 47.2332 90.3076 46.0559C89.7492 45.4278 89.1566 44.06 88.592 43.2694C88.2657 42.8135 87.0273 41.5947 86.9041 41.335C86.865 41.2539 86.8732 41.0742 86.9834 41.1079C87.9865 41.5854 89.0449 41.9706 89.9764 42.5755C90.3057 42.7904 91.5717 43.9926 91.7698 43.8697C91.8867 42.9103 94.6783 41.2722 95.428 41.7083C95.9782 42.0274 97.1841 44.3947 97.1436 45.0243C97.0868 45.89 95.5239 46.3981 95.511 46.5562L99.8102 51.085C100.19 51.1496 100.021 50.9239 100.047 50.6998C100.117 50.0657 100.141 49.3409 100.234 48.724C100.26 48.5536 100.292 48.007 100.537 48.0163C105.338 54.7892 109.235 62.1184 110.714 70.2469C112.251 78.6921 111.249 87.1508 108.654 95.2994L104.113 90.8475C102.784 103.302 95.5449 114.414 84.5425 121.234L82.6857 114.489C81.3161 115.316 79.9884 116.201 78.5764 116.971C68.84 122.288 56.6575 123.955 45.8822 120.518C45.1066 120.27 40.283 118.431 40.2229 117.949C42.6056 108.562 43.1801 98.6337 40.1628 89.3138C39.7896 89.2248 39.8966 89.3844 39.7944 89.5073C38.0967 91.5489 36.6117 93.9547 34.8734 96.0515C31.8271 99.7269 28.3895 103.155 24.5008 106.036C22.4217 102.849 21.3846 98.7137 20.737 95.0247C19.5278 88.1349 19.4223 80.7646 21.1768 73.9622L11.7617 76.7193C12.867 67.4468 16.7622 58.2528 22.9589 51.0051C21.2726 50.566 19.4256 50.6123 17.7263 50.2713C17.5137 50.2283 17.2264 50.2361 17.3027 49.9581C17.4293 49.5053 18.1109 48.397 18.3869 47.9087C20.9577 43.3553 25.0834 38.5043 29.0419 34.9597C29.8356 34.2487 32.8317 31.6145 33.5929 31.2798C33.6773 31.2428 33.8688 31.2506 33.8331 31.3549C31.4765 36.3534 32.869 43.053 38.3775 45.5567C38.0253 44.5789 37.4329 43.7039 37.0742 42.723C33.8866 33.9954 39.4795 27.098 48.6026 32.815C47.6855 29.8398 44.7268 27.4065 41.4628 26.9798C42.1122 26.4916 43.1507 26.0602 43.9509 25.727C50.9333 22.8179 59.7039 20.9941 67.3564 21.295C68.3189 21.3334 70.1901 21.4286 71.0715 21.6189C72.9784 22.0319 76.8771 25.6319 78.3102 27.0534C78.4968 27.2392 79.1525 28.2724 79.4397 28.0544ZM90.1354 60.1564C87.6004 59.4978 85.4401 58.0133 83.2864 56.6484C77.5782 57.961 72.7236 60.9594 68.0656 64.2063L74.084 75.2733C80.4575 75.0338 85.1756 70.8211 90.0022 67.4438L90.1354 60.1564ZM99.4012 57.0706C99.1936 56.9264 96.6454 59.0524 96.2087 59.3442C95.5969 59.7526 94.9151 60.0597 94.2889 60.4449C94.2726 62.5066 93.8246 64.785 94.037 66.8281C94.1296 67.7185 95.2916 68.3618 95.9166 69.0419C97.3239 70.5771 98.5947 72.2551 99.4872 74.111C99.8541 74.111 100.425 72.8537 100.57 72.5252C102.691 67.6803 101.586 61.7253 99.4012 57.0706ZM89.8286 90.3838C93.3312 88.7765 96.694 83.5646 97.0934 79.9785C97.2881 78.2239 95.4752 75.1702 94.0938 73.9899L88.8435 74.0265C85.307 76.7469 81.3891 79.3366 76.8428 80.2532L80.5191 86.8653C83.7636 86.2772 86.7644 84.8189 89.1762 82.7079C89.7784 85.2288 89.9034 87.8047 89.8286 90.3838Z" fill="white"/>
<path d="M75.394 2.11121C75.6879 2.16955 75.696 2.41365 75.7222 2.64241C75.9524 4.65363 75.9007 6.90127 76.0419 8.94165C76.1603 10.6535 76.4572 12.3638 76.3647 14.0863C76.649 14.1416 76.7656 13.9482 76.9345 13.7824C78.6324 12.1181 80.025 9.92576 81.9597 8.40276L84.4805 6.56659C82.3946 10.7625 81.6238 15.3437 81.0702 19.9219C66.8208 16.0592 51.3216 17.9982 38.4745 24.8318C37.7003 23.252 37.2101 21.5632 36.4651 19.9711C35.2007 17.2721 33.5532 14.7082 31.7305 12.3208C31.857 12.0905 32.1216 12.3653 32.271 12.4237C35.5967 13.7547 38.6157 16.1835 41.4675 18.2316L39.4402 5.94938L52.5795 14.6959L57.2947 2.11427L64.7611 13.4692L75.394 2.11121Z" fill="white"/>
</g>
</svg>