<svg xmlns:xlink="http://www.w3.org/1999/xlink" version="1.0" xmlns="http://www.w3.org/2000/svg" width="512" height="512" viewBox="0 0 512.000000 512.000000" preserveAspectRatio="xMidYMid meet">

<g transform="translate(0.000000,512.000000) scale(0.100000,-0.100000)" fill="#FDFFFF" stroke="#FDFFFF" stroke-opacity="0.9" fill-opacity="0.9">
<path d="M2283 5110 c-17 -6 -51 -31 -75 -57 -142 -153 -211 -222 -278 -276
-275 -222 -629 -381 -1007 -452 -118 -22 -343 -45 -447 -45 -111 0 -161 -15
-206 -60 -50 -50 -60 -94 -60 -266 0 -812 129 -1593 357 -2169 312 -786 817
-1335 1573 -1708 134 -66 150 -71 210 -72 62 0 73 4 240 87 191 96 337 184
489 295 l99 73 800 2 800 3 43 30 c23 17 52 48 63 70 21 39 21 49 21 745 0
696 0 706 -21 745 -11 22 -40 54 -63 70 -42 30 -44 30 -197 33 l-154 4 0 276
c0 320 -8 372 -70 489 -84 162 -228 270 -407 308 -317 67 -634 -133 -708 -446
-11 -49 -15 -130 -15 -346 l0 -281 -153 -4 c-147 -3 -155 -4 -194 -30 -22 -15
-51 -44 -64 -65 l-24 -38 -3 -662 -3 -662 -47 -34 c-72 -53 -223 -142 -333
-198 l-100 -49 -119 60 c-136 70 -344 205 -470 307 -47 37 -135 117 -195 178
-520 520 -819 1262 -919 2280 -18 177 -40 610 -33 629 4 9 37 15 103 20 568
42 1127 274 1548 641 l86 76 86 -76 c428 -374 954 -589 1569 -643 l80 -7 1
-100 c1 -132 9 -168 47 -212 86 -98 228 -94 309 8 38 47 48 115 48 343 0 204
-8 244 -60 296 -45 45 -95 60 -206 60 -105 0 -329 23 -451 46 -342 64 -677
207 -941 403 -94 70 -256 223 -309 292 -21 28 -53 59 -70 70 -38 24 -124 33
-170 19z m1701 -2297 c23 -16 51 -48 64 -73 21 -43 22 -54 22 -312 l0 -268
-200 0 -200 0 0 268 c0 292 5 317 63 370 63 59 178 66 251 15z m526 -1503 l0
-450 -640 0 -640 0 0 450 0 450 640 0 640 0 0 -450z" stroke-opacity="0.9" stroke="#FDFFFF" fill-opacity="0.9" fill="#FDFFFF"></path>
</g>
</svg>