<svg xmlns="http://www.w3.org/2000/svg" viewBox="0 0 24 24" width="24" height="24" role="img" aria-label="Mines">
  <path d="M6.2 10.4L9 6.5h6l2.8 3.9L12 18.5 6.2 10.4z" fill="#9ca3af"/>
  <path d="M9 6.5l3 12 3-12M6.2 10.4h11.6M9 6.5l-.5 3.9L12 6.5l3.5 3.9-.5-3.9" fill="none" stroke="#4b5563" stroke-width="1.4" stroke-linecap="round" stroke-linejoin="round"/>
  <path d="M18.8 3.1l.7 1.6 1.6.7-1.6.7-.7 1.6-.7-1.6-1.6-.7 1.6-.7.7-1.6zm-14 2.5l.5 1.1 1.1.5-1.1.5-.5 1.1-.5-1.1-1.1-.5 1.1-.5.5-1.1z" fill="#6b7280"/>
</svg>
