<svg width="40" height="48" viewBox="0 0 40 48" fill="none" xmlns="http://www.w3.org/2000/svg">
<path d="M59.2312 17.0536L13.0563 5.13606C12.5463 5.00442 12.0523 5.20978 11.9529 5.59475L2.95763 40.4471C2.85827 40.8321 3.19119 41.2509 3.70122 41.3825L49.8761 53.3001C50.3862 53.4318 50.8802 53.2264 50.9796 52.8414L59.9748 17.989C60.0742 17.6041 59.7413 17.1853 59.2312 17.0536Z" fill="#FFEC97"/>
<path d="M45.8769 34.4255C45.1421 34.2359 44.4943 33.8337 44.076 33.3074C43.6576 32.7812 43.503 32.1739 43.6461 31.6193C43.6939 31.4345 43.6423 31.2321 43.5029 31.0566C43.3634 30.8812 43.1475 30.7471 42.9026 30.6839L20.7386 24.9635C20.4937 24.9003 20.2398 24.9131 20.0329 24.9991C19.826 25.0851 19.6829 25.2373 19.6352 25.4222C19.492 25.9768 19.0629 26.4333 18.4421 26.6914C17.8213 26.9495 17.0598 26.9879 16.325 26.7983C16.08 26.7351 15.8262 26.7479 15.6193 26.8339C15.4123 26.9199 15.2693 27.0721 15.2216 27.257L11.2636 42.592C11.2159 42.7769 11.2675 42.9793 11.4069 43.1547C11.5464 43.3301 11.7623 43.4642 12.0072 43.5274L41.5592 51.1547C41.8041 51.2179 42.058 51.2051 42.2649 51.119C42.4718 51.033 42.6149 50.8808 42.6626 50.696L46.6205 35.3609C46.6682 35.1761 46.6167 34.9736 46.4772 34.7982C46.3378 34.6228 46.1218 34.4887 45.8769 34.4255Z" fill="#FFDB2D"/>
<path d="M24.8418 31.9697L21.1478 31.0163C20.1277 30.753 19.1397 31.1637 18.941 31.9336L17.8615 36.1159C17.6628 36.8859 18.3287 37.7235 19.3487 37.9867L23.0427 38.9401C24.0628 39.2034 25.0508 38.7927 25.2495 38.0227L26.329 33.8405C26.5277 33.0705 25.8618 32.2329 24.8418 31.9697Z" fill="#FFF5CB"/>
<path d="M39.6152 35.7836L35.9212 34.8302C34.9011 34.5669 33.9131 34.9777 33.7144 35.7476L32.635 39.9299C32.4363 40.6998 33.1021 41.5374 34.1222 41.8007L37.8162 42.7541C38.8362 43.0174 39.8242 42.6066 40.023 41.8367L41.1024 37.6544C41.3011 36.8845 40.6353 36.0469 39.6152 35.7836Z" fill="#FFF5CB"/>
<path d="M24.5306 40.8114L23.6071 40.5731C23.3622 40.5099 23.1083 40.5227 22.9014 40.6087C22.6945 40.6947 22.5514 40.8469 22.5037 41.0318C22.456 41.2166 22.5075 41.419 22.647 41.5945C22.7864 41.7699 23.0024 41.9039 23.2473 41.9672L24.1708 42.2055C24.4157 42.2687 24.6696 42.2559 24.8765 42.1699C25.0834 42.0839 25.2265 41.9317 25.2742 41.7468C25.3219 41.562 25.2704 41.3595 25.1309 41.1841C24.9915 41.0087 24.7755 40.8746 24.5306 40.8114Z" fill="#EBB300"/>
<path d="M32.8392 42.9564L31.9157 42.7181C31.6708 42.6549 31.4169 42.6677 31.21 42.7537C31.0031 42.8397 30.86 42.9919 30.8123 43.1768C30.7646 43.3617 30.8161 43.5641 30.9556 43.7395C31.095 43.9149 31.3109 44.049 31.5559 44.1122L32.4794 44.3505C32.7243 44.4137 32.9782 44.4009 33.1851 44.3149C33.392 44.2289 33.5351 44.0767 33.5828 43.8918C33.6305 43.707 33.579 43.5046 33.4395 43.3291C33.3001 43.1537 33.0841 43.0197 32.8392 42.9564Z" fill="#EBB300"/>
<path d="M31.1032 30.6116C30.8583 30.5484 30.6044 30.5612 30.3975 30.6473C30.1906 30.7333 30.0475 30.8855 29.9998 31.0703L25.862 47.1024L27.709 47.5791L31.8468 31.547C31.8945 31.3622 31.843 31.1598 31.7035 30.9843C31.5641 30.8089 31.3481 30.6749 31.1032 30.6116Z" fill="#EBB300"/>
<path d="M45.8769 34.4258C45.1432 34.2346 44.4968 33.8323 44.0789 33.3065C43.6609 32.7807 43.5053 32.1742 43.6461 31.6196C43.6939 31.4347 43.6423 31.2323 43.5029 31.0569C43.3634 30.8815 43.1475 30.7474 42.9026 30.6842L20.7386 24.9637C20.4937 24.9005 20.2398 24.9133 20.0329 24.9994C19.826 25.0854 19.6829 25.2376 19.6352 25.4224C19.49 25.976 19.0604 26.4314 18.4401 26.6892C17.8199 26.947 17.0595 26.9863 16.325 26.7985C16.08 26.7353 15.8262 26.7481 15.6193 26.8341C15.4123 26.9202 15.2693 27.0723 15.2216 27.2572L11.0837 43.2893L12.9307 43.766L16.9066 28.3613C17.829 28.4527 18.7284 28.332 19.4933 28.014C20.2582 27.696 20.8551 27.1948 21.2099 26.5723L41.7116 31.8638C41.7209 32.5802 42.0006 33.3077 42.5161 33.9561C43.0316 34.6046 43.7602 35.1455 44.6116 35.5118L40.6357 50.9166L42.4827 51.3933L46.6205 35.3612C46.6682 35.1763 46.6167 34.9739 46.4772 34.7985C46.3378 34.6231 46.1218 34.489 45.8769 34.4258Z" fill="#EBB300"/>
<path d="M21.4848 25.8987C21.5325 25.7138 21.4809 25.5114 21.3415 25.336C21.202 25.1606 20.9861 25.0265 20.7412 24.9633L13.3532 23.0565C13.1083 22.9933 12.8544 23.0061 12.6475 23.0921C12.4406 23.1781 12.2975 23.3303 12.2498 23.5152C12.0112 24.4395 12.2689 25.4515 12.9662 26.3287C13.6634 27.2058 14.7431 27.8761 15.9677 28.1922C17.1924 28.5082 18.4616 28.4442 19.4963 28.0141C20.5309 27.5839 21.2462 26.823 21.4848 25.8987Z" fill="#C06100"/>
<path d="M43.6488 31.6194C43.6965 31.4345 43.645 31.2321 43.5056 31.0567C43.3661 30.8813 43.1502 30.7472 42.9052 30.684L35.5172 28.7772C35.2723 28.714 35.0185 28.7268 34.8115 28.8128C34.6046 28.8988 34.4616 29.051 34.4138 29.2359C34.1753 30.1602 34.433 31.1723 35.1302 32.0494C35.8275 32.9265 36.9072 33.5968 38.1318 33.9129C39.3564 34.2289 40.6257 34.1649 41.6603 33.7348C42.695 33.3047 43.4103 32.5437 43.6488 31.6194Z" fill="#FF9A00"/>
<path d="M28.8715 27.8054C28.9192 27.6206 28.8677 27.4181 28.7282 27.2427C28.5888 27.0673 28.3728 26.9332 28.1279 26.87L20.7399 24.9632C20.495 24.9 20.2411 24.9128 20.0342 24.9988C19.8273 25.0848 19.6842 25.237 19.6365 25.4219C19.3979 26.3462 19.6556 27.3583 20.3529 28.2354C21.0501 29.1125 22.1298 29.7828 23.3545 30.0989C24.5791 30.415 25.8483 30.3509 26.883 29.9208C27.9176 29.4907 28.6329 28.7298 28.8715 27.8054Z" fill="#FF9A00"/>
<path d="M35.4208 13.8826C30.278 12.5598 24.95 12.831 20.606 14.6369C16.262 16.4428 13.2566 19.6357 12.2493 23.5152L21.4843 25.8987C23.2942 18.8864 28.7997 16.5231 32.3054 15.7253C33.1872 15.5173 34.1062 15.3834 35.0484 15.3255C35.8449 15.8321 36.5843 16.3941 37.2553 17.0029C39.9371 19.3976 43.6111 24.1302 41.8013 31.1425L51.0363 33.526C52.0323 29.6436 50.9476 25.395 48.0201 21.7124C45.0926 18.0298 40.5615 15.2139 35.4208 13.8826Z" fill="#E67500"/>
<path d="M36.2582 29.7126C36.3059 29.5278 36.2544 29.3254 36.1149 29.1499C35.9755 28.9745 35.7595 28.8405 35.5146 28.7772L28.1266 26.8704C27.8817 26.8072 27.6278 26.82 27.4209 26.9061C27.214 26.9921 27.0709 27.1443 27.0232 27.3291C26.7846 28.2535 27.0423 29.2655 27.7396 30.1426C28.4368 31.0197 29.5165 31.6901 30.7412 32.0061C31.9658 32.3222 33.2351 32.2581 34.2697 31.828C35.3044 31.3979 36.0196 30.637 36.2582 29.7126Z" fill="#C06100"/>
<path d="M43.6509 31.6191L34.4159 29.2356L34.4285 29.1868C34.4611 29.0985 37.357 20.9316 34.9359 15.7715C30.32 19.1154 28.9017 27.6637 28.8875 27.7567L28.8749 27.8055L19.64 25.4219L19.6418 25.415C22.5994 13.9555 34.8719 13.8442 35.1189 13.8411C35.3231 13.8442 35.5298 13.8976 35.71 13.9936C35.9247 14.116 46.6104 20.1526 43.6509 31.6191Z" fill="#FFA91F"/>
<path d="M36.2714 29.7146L27.0272 27.3287C27.3474 24.943 28.9766 19.0885 32.3568 15.6859C32.9949 15.0128 33.766 14.4282 34.6468 13.9499C34.7557 13.8973 34.8809 13.8651 35.0141 13.8553C35.1474 13.8455 35.2857 13.8583 35.4199 13.893C35.5542 13.9277 35.6815 13.9833 35.7933 14.0564C35.9052 14.1294 35.9991 14.2182 36.069 14.3169C36.615 15.1818 37.0148 16.0856 37.2572 17.0027C38.5276 21.5833 37.1657 27.4325 36.2714 29.7146Z" fill="#E67500"/>
<path d="M17.7198 13.7748C17.6721 13.9596 17.529 14.1118 17.3221 14.1978C17.1152 14.2839 16.8613 14.2967 16.6164 14.2335L10.1519 12.565L10.5117 11.1709L16.9762 12.8394C17.2211 12.9026 17.4371 13.0366 17.5765 13.2121C17.716 13.3875 17.7675 13.5899 17.7198 13.7748Z" fill="#D9A600"/>
<path d="M62.1534 13.3477L12.2845 0.476704C11.2644 0.213427 10.2764 0.624158 10.0777 1.3941L9.35807 4.18229C9.15935 4.95222 9.82518 5.78981 10.8453 6.05308L60.7142 18.9241C61.7342 19.1874 62.7223 18.7766 62.921 18.0067L63.6406 15.2185C63.8393 14.4486 63.1735 13.611 62.1534 13.3477Z" fill="#FF8900"/>
</svg>
