<svg xmlns:xlink="http://www.w3.org/1999/xlink" xmlns="http://www.w3.org/2000/svg" data-v-95a5ea25="" fill="currentColor" width="34.24203253333333" height="34.24203253333333" class="cursor-pointer" style="color: var(--skin-svg-color);"><defs><symbol viewBox="0 0 56 56" id="icon_history_record"><g transform="translate(9003.117 -7343.883)" clip-path="url(#comm_icon_cz_jl--svgSprite:all_clip-path)"><path data-name="联合 619" d="M-8972.141 7397.351a16.013 16.013 0 0 1 6.113-30.81h.013a16.014 16.014 0 1 1-6.125 30.81Zm1.391-26.22a12.361 12.361 0 1 0 4.719-.938 12.395 12.395 0 0 0-4.71.939Zm-23.658 22.719a6.564 6.564 0 0 1-6.555-6.56v-34.693a6.561 6.561 0 0 1 6.555-6.555h26.811a6.56 6.56 0 0 1 6.552 6.555v6.562h-3.65v-6.558a2.905 2.905 0 0 0-2.9-2.9h-26.813a2.908 2.908 0 0 0-2.9 2.9V7387.288a2.9 2.9 0 0 0 2.9 2.9h8.134v3.655Zm33.487-3.681-6.417-6.434a1.709 1.709 0 0 1-.452-.817v-.01a.6.6 0 0 1-.03-.155v-.077a21.265 21.265 0 0 1-.028-2.3v-5.7a1.825 1.825 0 1 1 3.651 0v7.218l5.773 5.783a1.764 1.764 0 0 1-.751 3.033 1.812 1.812 0 0 1-.421.051 1.779 1.779 0 0 1-1.32-.591Zm-30.334-19.975a1.827 1.827 0 0 1 0-3.653h6.311a1.827 1.827 0 0 1 0 3.653Zm0-9.456a1.825 1.825 0 0 1 0-3.65h20.5a1.825 1.825 0 1 1 0 3.65Z"></path></g></symbol></defs><use xlink:href="#icon_history_record"></use></svg>