<svg xmlns:xlink="http://www.w3.org/1999/xlink" xmlns="http://www.w3.org/2000/svg" data-v-95a5ea25="" fill="currentColor" width="41.09043904" height="41.09043904" class="mr-3 cursor-pointer" style="color: var(--skin-svg-color);"><defs><symbol viewBox="0 0 40 40" id="icon_service"><path d="M18.818 35.007a2.721 2.721 0 0 1-2.469-1.515h-2.4a4.541 4.541 0 0 1-4.643-4.421v-.735h-.439a1.365 1.365 0 0 1-1.4-1.329V16.87c0-.016.011-.027.019-.04A12.419 12.419 0 0 1 19.995 4.992a12.419 12.419 0 0 1 12.514 11.836.08.08 0 0 1 .019.042v10.131a1.363 1.363 0 0 1-1.4 1.329h-4.561a1.363 1.363 0 0 1-1.395-1.329v-8.89a1.363 1.363 0 0 1 1.395-1.33h2.578a9.165 9.165 0 0 0-18.3 0h2.578a1.363 1.363 0 0 1 1.4 1.329V27a1.363 1.363 0 0 1-1.4 1.329h-1.877v.74a2.354 2.354 0 0 0 2.406 2.291h2.382a2.728 2.728 0 0 1 2.485-1.541h2.364a2.595 2.595 0 1 1 0 5.186Zm15.488-9.423v-6.058a.508.508 0 0 1 .6-.493 2.923 2.923 0 0 1 2.426 2.826v1.391a2.923 2.923 0 0 1-2.426 2.826.5.5 0 0 1-.1.009.51.51 0 0 1-.506-.5Zm-29.215.493a2.923 2.923 0 0 1-2.424-2.826v-1.39a2.923 2.923 0 0 1 2.426-2.827.508.508 0 0 1 .6.493v6.058a.506.506 0 0 1-.6.493Z"></path></symbol></defs><use xlink:href="#icon_service"></use></svg>