<svg xmlns:xlink="http://www.w3.org/1999/xlink" xmlns="http://www.w3.org/2000/svg" data-v-92c4a695="" fill="currentColor" width="30.817829279999998" height="30.817829279999998" class="cursor-pointer ml-1" style="color: var(--skin-panle-font-gray-color-text);"><defs><symbol viewBox="0 0 26 21.514" id="icon_no_eyes"><path data-name="Path 515" d="m21.839 0-3.3 3.3a14.338 14.338 0 0 0-5.53-1.1A13.585 13.585 0 0 0-.003 11.08l.069.007-.069.007a12.82 12.82 0 0 0 4.592 6.156l-2.855 2.855 1.412 1.412 20.1-20.1ZM7.047 11.032a5.935 5.935 0 0 1 8.907-5.148l-1.827 1.828a3.507 3.507 0 0 0-4.456 4.456l-1.825 1.825a5.888 5.888 0 0 1-.8-2.961Z"></path><path data-name="Path 516" d="M12.997 14.553a3.516 3.516 0 0 0 3.514-3.515v-.084l-3.6 3.6c.029-.005.057-.001.086-.001Z"></path><path data-name="Path 517" d="M26 11.076a12.792 12.792 0 0 0-3.948-5.668l-3.507 3.507a5.934 5.934 0 0 1-7.668 7.668l-2.594 2.594a14.48 14.48 0 0 0 4.729.794A13.555 13.555 0 0 0 26 11.09l-.07-.007Z"></path></symbol></defs><use xlink:href="#icon_no_eyes"></use></svg>