<svg xmlns:xlink="http://www.w3.org/1999/xlink" xmlns="http://www.w3.org/2000/svg" data-v-92c4a695="" fill="currentColor" width="23.969422773333335" height="23.969422773333335" style="color: var(--skin-panle-font-gray-color-text);"><defs><symbol viewBox="0 0 15.117 20" id="icon_password_icon"><path d="M13.438 7.5V6a5.966 5.966 0 0 0-5.583-6 5.866 5.866 0 0 0-6.176 5.826v1.666h-.236A1.438 1.438 0 0 0 0 8.924v9.635a1.438 1.438 0 0 0 1.443 1.432h12.23a1.438 1.438 0 0 0 1.443-1.432V8.924a1.438 1.438 0 0 0-1.443-1.432Zm-9.8-1.528a3.919 3.919 0 0 1 7.838 0V7.5H3.638Zm5.177 10.232a.41.41 0 0 1-.1.323.424.424 0 0 1-.313.139H6.723a.423.423 0 0 1-.314-.139.412.412 0 0 1-.1-.323l.265-2.364a1.643 1.643 0 0 1-.687-1.34 1.68 1.68 0 0 1 3.359 0 1.643 1.643 0 0 1-.687 1.34Z"></path></symbol></defs><use xlink:href="#icon_password_icon"></use></svg>