<svg xmlns:xlink="http://www.w3.org/1999/xlink" xmlns="http://www.w3.org/2000/svg" fill="currentColor" width="34.24203253333333" height="34.24203253333333" style="color: var(--skin-svg-color);"><defs><symbol viewBox="0 0 40 40" id="icon_agent"><path data-name="路径 16891" d="M7.333 38A5.289 5.289 0 0 1 2 32.769V9.231A5.289 5.289 0 0 1 7.333 4h13.334a1.668 1.668 0 0 1 1.667 1.667 1.668 1.668 0 0 1-1.667 1.667v.015H7.333a1.983 1.983 0 0 0-2 1.961v23.458a1.984 1.984 0 0 0 2 1.962h24a1.983 1.983 0 0 0 2-1.962v-10.1A1.667 1.667 0 0 1 35 21a1.666 1.666 0 0 1 1.666 1.666v10.1a5.288 5.288 0 0 1-5.334 5.231Zm9.07-11.7a1.666 1.666 0 0 1-1.626-1.706 16.236 16.236 0 0 1 1.048-4.774 13.806 13.806 0 0 1 4.961-6.68 17.591 17.591 0 0 1 9.423-3.09l-2.055-2.055a1.668 1.668 0 0 1 0-2.357 1.667 1.667 0 0 1 2.357 0l5.185 5.185a1.667 1.667 0 0 1 0 2.357l-5.185 5.185a1.667 1.667 0 0 1-2.357 0 1.667 1.667 0 0 1 0-2.357l2.652-2.652c-8.089.345-10.882 4.807-11.838 7.571l-.012.033a13.14 13.14 0 0 0-.848 3.715 1.668 1.668 0 0 1-1.666 1.627Z"></path></symbol></defs><use xlink:href="#icon_agent"></use></svg>