<svg xmlns:xlink="http://www.w3.org/1999/xlink" xmlns="http://www.w3.org/2000/svg" fill="currentColor" width="34.24203253333333" height="34.24203253333333" style="color: var(--skin-svg-color);"><defs><symbol viewBox="0 0 40 40" id="icon_language"><path d="M20.001 38.268h-.006A18.124 18.124 0 0 1 2.067 20 18.123 18.123 0 0 1 20.001 1.733 18.123 18.123 0 0 1 37.934 20a18.123 18.123 0 0 1-17.933 18.268Zm9.063-16.334v.063a22.013 22.013 0 0 1-4.572 12.234l-.134.172.208-.068a14.806 14.806 0 0 0 6.764-4.649 15.147 15.147 0 0 0 3.338-7.676l.01-.075Zm-23.735 0 .01.075a15.135 15.135 0 0 0 3.337 7.676 14.8 14.8 0 0 0 6.763 4.649l.207.068-.133-.172a22.009 22.009 0 0 1-4.571-12.234v-.063Zm9.41 0 .005.071a18.189 18.189 0 0 0 1.574 6.251 17.862 17.862 0 0 0 3.635 5.254l.047.047.047-.047a17.863 17.863 0 0 0 3.634-5.254 18.2 18.2 0 0 0 1.574-6.251v-.071Zm8.1-16.723.15.157a22.187 22.187 0 0 1 5.948 12.639l.007.059h5.726l-.01-.076a15.082 15.082 0 0 0-3.841-8.253 14.931 14.931 0 0 0-3.511-2.833 14.512 14.512 0 0 0-4.256-1.649l-.212-.045Zm-2.843 2.574-.047.047a18.07 18.07 0 0 0-3.334 4.664 18.3 18.3 0 0 0-1.726 5.494l-.011.077h10.236l-.011-.077a18.294 18.294 0 0 0-1.726-5.494 18.1 18.1 0 0 0-3.333-4.664l-.047-.047Zm-2.843-2.574-.212.045a14.538 14.538 0 0 0-4.256 1.649 14.945 14.945 0 0 0-3.51 2.833 15.076 15.076 0 0 0-3.84 8.253l-.01.076h5.725l.007-.059a22.176 22.176 0 0 1 5.947-12.639l.15-.157Z"></path></symbol></defs><use xlink:href="#icon_language"></use></svg>