<svg xmlns:xlink="http://www.w3.org/1999/xlink" xmlns="http://www.w3.org/2000/svg" fill="currentColor" width="34.24203253333333" height="34.24203253333333" style="color: var(--skin-svg-color);"><defs><symbol viewBox="0 0 40 40" id="icon_sair"><path data-name="路径 16890" d="M8.001 37.333A5.338 5.338 0 0 1 2.667 32V8a5.338 5.338 0 0 1 5.334-5.332h16A5.339 5.339 0 0 1 29.335 8v1.334A1.666 1.666 0 0 1 27.668 11a1.666 1.666 0 0 1-1.666-1.666V8a2 2 0 0 0-2-2h-16a2 2 0 0 0-2 2v24a2 2 0 0 0 2 2h16a2 2 0 0 0 2-2v-1.333A1.666 1.666 0 0 1 27.668 29a1.667 1.667 0 0 1 1.667 1.667V32a5.339 5.339 0 0 1-5.334 5.333Zm21.861-11.677a2 2 0 0 1 0-2.828l.829-.829h-9.357a2 2 0 0 1-2-2 2 2 0 0 1 2-2h9.357l-.829-.829a2 2 0 0 1 0-2.828 2 2 0 0 1 2.828 0l4.243 4.242a2 2 0 0 1 .585 1.415 1.992 1.992 0 0 1-.585 1.414l-4.243 4.242a1.99 1.99 0 0 1-1.414.587 1.993 1.993 0 0 1-1.409-.586Z"></path></symbol></defs><use xlink:href="#icon_sair"></use></svg>