<svg xmlns:xlink="http://www.w3.org/1999/xlink" xmlns="http://www.w3.org/2000/svg" fill="currentColor" width="34.24203253333333" height="34.24203253333333" style="color: var(--skin-svg-color);"><defs><symbol viewBox="0 0 40 40" id="icon_faq"><path d="M1.667 20A18.333 18.333 0 1 1 20 38.334 18.353 18.353 0 0 1 1.667 20Zm3.334 0a15 15 0 1 0 15-15A15.015 15.015 0 0 0 5.002 20Zm12.635 9.393a2.265 2.265 0 1 1 2.265 2.266 2.266 2.266 0 0 1-2.265-2.266Zm.292-5.424s-.057-1.793 0-2.578c.133-1.043 1.419-1.367 2.041-1.49.005 0 2.867-.227 3.479-2.324a3.013 3.013 0 0 0-2.14-3.7 3.2 3.2 0 0 0-3.6 1.77 2.1 2.1 0 0 1-2.5 1.258 1.805 1.805 0 0 1-1.147-2.231 7 7 0 0 1 3.172-3.822 6.792 6.792 0 0 1 9.854 7.7c-.709 2.633-2.87 3.79-5.39 4.229v1.186a1.886 1.886 0 0 1-3.771 0Z"></path></symbol></defs><use xlink:href="#icon_faq"></use></svg>