<svg xmlns:xlink="http://www.w3.org/1999/xlink" xmlns="http://www.w3.org/2000/svg" fill="currentColor" width="34.24203253333333" height="34.24203253333333" style="color: var(--skin-svg-color);"><defs><symbol viewBox="0 0 40 40" id="icon_withdrawal"><g data-name="1"><path data-name="路径 16896" d="m24.467 34.624-.2-1.259-.066-.066-1.193.464a1.976 1.976 0 0 1-2.455-.856l-1.593-2.72a2.02 2.02 0 0 1 .464-2.521l1.069-.8v-.141l-.994-.8a1.884 1.884 0 0 1-.464-2.521l1.593-2.72a1.944 1.944 0 0 1 2.389-.856l1.259.464.067-.067.2-1.328a1.924 1.924 0 0 1 1.925-1.657h3.184a1.888 1.888 0 0 1 1.924 1.723l.2 1.262.066.067 1.193-.464a1.976 1.976 0 0 1 2.455.856l1.593 2.72a2.021 2.021 0 0 1-.464 2.521l-1.069.8v.133l1.069.8a2.038 2.038 0 0 1 .53 2.521l-1.593 2.78a2.081 2.081 0 0 1-2.455.855l-1.259-.464-.066.067-.2 1.325a2.067 2.067 0 0 1-1.991 1.593l-.008.015h-3.225a1.892 1.892 0 0 1-1.885-1.726Zm.536-3.641a5.986 5.986 0 0 0 .856.53l.6.265.34 2.117h2.322l.332-2.189.6-.265a5.985 5.985 0 0 0 .855-.53l.53-.4 2.057.8 1.2-2.057-1.726-1.325.066-.663v-1l-.066-.663 1.726-1.328-1.2-2.055-2.057.8-.53-.4a5.98 5.98 0 0 0-.855-.53l-.6-.268-.332-2.187h-2.334l-.331 2.187-.6.268a2.992 2.992 0 0 0-.856.53l-.53.4-2.057-.8-1.193 2.055 1.726 1.328-.066.663v1.069l.066.663-1.726 1.325 1.193 2.057 2.057-.8Zm8.3-9.163c-.007.066.064.066-.007-.001Zm-16.724 8.531H6.537A3.845 3.845 0 0 1 3.8 29.217a3.9 3.9 0 0 1-1.133-2.747V9.213a3.855 3.855 0 0 1 1.135-2.746 3.857 3.857 0 0 1 2.741-1.135h25.582a3.854 3.854 0 0 1 2.74 1.135A3.854 3.854 0 0 1 36 9.213v8.606a11.98 11.98 0 0 0-3.119-2v-.5h-1.357a12.02 12.02 0 0 0-3.486-.514 12.023 12.023 0 0 0-3.486.514H5.786v11.3a.773.773 0 0 0 .761.761l9.5-.093a11.991 11.991 0 0 0 .524 3.073ZM6.563 8.522a.766.766 0 0 0-.762.761v2.9H32.88v-2.9a.775.775 0 0 0-.762-.761H6.556ZM25.74 26.73a2.256 2.256 0 0 1 2.256-2.256 2.256 2.256 0 0 1 2.256 2.256 2.279 2.279 0 0 1-2.256 2.256 2.256 2.256 0 0 1-2.263-2.257ZM9.515 21.149a1.4 1.4 0 0 1-.55-.118 1.434 1.434 0 0 1-.762-.8 1.412 1.412 0 0 1-.095-.552 1.493 1.493 0 0 1 1.471-1.471h4.625a1.474 1.474 0 0 1 .548.106 1.462 1.462 0 0 1 .479.319 1.411 1.411 0 0 1 .317.48 1.445 1.445 0 0 1 .106.567 1.493 1.493 0 0 1-1.475 1.467Z"></path></g></symbol></defs><use xlink:href="#icon_withdrawal"></use></svg>