<svg xmlns:xlink="http://www.w3.org/1999/xlink" xmlns="http://www.w3.org/2000/svg" fill="currentColor" width="34.24203253333333" height="34.24203253333333" style="color: var(--skin-svg-color);"><defs><symbol viewBox="0 0 40 40" id="icon_message"><path data-name="路径 16899" d="M20.001 35.334A15.333 15.333 0 0 1 9.158 9.158a15.333 15.333 0 0 1 26.176 10.843 15.193 15.193 0 0 1-3.128 9.282c.692 1.029 1.754 2.938 1.092 4.144a1.289 1.289 0 0 1-1.237.612 8.926 8.926 0 0 1-3.6-1.247 15.263 15.263 0 0 1-8.46 2.542Zm7.893-18a2.76 2.76 0 1 0 2.76 2.76 2.763 2.763 0 0 0-2.76-2.76Zm-7.893 0a2.76 2.76 0 1 0 2.76 2.76 2.763 2.763 0 0 0-2.76-2.76Zm-7.907 0a2.76 2.76 0 1 0 2.76 2.76 2.763 2.763 0 0 0-2.76-2.76Z"></path></symbol></defs><use xlink:href="#icon_message"></use></svg>