<svg xmlns:xlink="http://www.w3.org/1999/xlink" xmlns="http://www.w3.org/2000/svg" fill="currentColor" width="34.24203253333333" height="34.24203253333333" style="color: var(--skin-svg-color);"><defs><symbol viewBox="0 0 40 40" id="icon_profile"><g data-name="icon_personal info"><path data-name="路径 16893" d="M20.506 38.681H2.813a1.646 1.646 0 0 1-1.644-1.644v-2.621a12.083 12.083 0 0 1 .953-4.721 12.131 12.131 0 0 1 2.6-3.854 12.115 12.115 0 0 1 3.855-2.6 12.728 12.728 0 0 1 4.722-.953h7.208a1.646 1.646 0 0 1 1.643 1.645 1.645 1.645 0 0 1-1.643 1.644h-7.208a8.85 8.85 0 0 0-8.84 8.84v.977h16.048a1.645 1.645 0 0 1 1.643 1.644 1.645 1.645 0 0 1-1.644 1.643Zm3.964-.263a1.5 1.5 0 0 1-1.066-.443 1.514 1.514 0 0 1-.442-1.136l.173-3.956a1.511 1.511 0 0 1 .442-1.006l8.884-8.885a1.508 1.508 0 0 1 1.072-.443 1.505 1.505 0 0 1 1.071.443l3.785 3.785a1.519 1.519 0 0 1 0 2.143l-8.885 8.883a1.521 1.521 0 0 1-1.006.442l-3.956.172Zm9.062-12.211-7.4 7.4-.073 1.718 1.718-.076 7.394-7.394-1.642-1.643Zm-13.677-5.873a9.518 9.518 0 0 1-9.508-9.506 9.518 9.518 0 0 1 9.508-9.508 9.518 9.518 0 0 1 9.507 9.508 9.517 9.517 0 0 1-9.508 9.506Zm0-15.726a6.227 6.227 0 0 0-6.22 6.22 6.226 6.226 0 0 0 6.22 6.218 6.225 6.225 0 0 0 6.218-6.218 6.226 6.226 0 0 0-6.219-6.22Z"></path></g></symbol></defs><use xlink:href="#icon_profile"></use></svg>