<svg width="45" height="67" viewBox="0 0 45 67" fill="none" xmlns="http://www.w3.org/2000/svg">
<g clip-path="url(#clip0_795_3)">
<path d="M28.5321 57.9514L17.1053 52.3519C15.9421 51.7819 14.9278 50.9486 14.1428 49.9182C13.3579 48.8877 12.824 47.6885 12.5836 46.4156C12.3431 45.1428 12.4026 43.8314 12.7575 42.5856C13.1124 41.3398 13.7528 40.1939 14.6279 39.2388L16.1065 37.6248C16.7519 36.9208 17.2931 36.1277 17.7133 35.27L29.1808 11.8687C29.9589 10.281 31.3358 9.06737 33.0086 8.49484C34.6815 7.92231 36.5132 8.03777 38.101 8.81582L50.074 14.6831C51.6617 15.4611 52.8753 16.838 53.4478 18.5109C54.0204 20.1837 53.9049 22.0155 53.1269 23.6032L41.6593 47.0045C41.2389 47.8621 40.9438 48.7757 40.7829 49.7172L40.4133 51.8747C40.1947 53.1515 39.6815 54.3597 38.9143 55.4035C38.1472 56.4473 37.1473 57.2978 35.9941 57.8877C34.8408 58.4775 33.5659 58.7904 32.2706 58.8015C30.9753 58.8125 29.6953 58.5215 28.5321 57.9514Z" fill="#FF8115"/>
<path d="M48.6069 17.6763L36.6339 11.8091C34.9808 10.999 32.9839 11.6824 32.1738 13.3355L22.6395 32.7917C21.8294 34.4448 22.5129 36.4417 24.166 37.2518L36.139 43.119C37.7921 43.9291 39.789 43.2457 40.5991 41.5926L50.1333 22.1364C50.9434 20.4833 50.26 18.4864 48.6069 17.6763Z" fill="#547580"/>
<path d="M23.9208 52.9066C26.8137 54.3243 30.3082 53.1283 31.7259 50.2353C33.1436 47.3423 31.9476 43.8479 29.0546 42.4302C26.1616 41.0125 22.6672 42.2085 21.2495 45.1015C19.8318 47.9945 21.0278 51.4889 23.9208 52.9066Z" fill="#F3D55B"/>
<path d="M27.9677 46.5386C27.7693 46.4413 27.6177 46.2692 27.5461 46.0601L27.4343 45.7334L27.1076 45.8452C26.8997 45.9124 26.6737 45.8952 26.4783 45.7973C26.283 45.6995 26.1338 45.5288 26.0631 45.3221C25.9923 45.1153 26.0056 44.8891 26.1001 44.692C26.1945 44.495 26.3626 44.3429 26.568 44.2686L27.683 43.887C27.8921 43.8155 28.121 43.8299 28.3195 43.9271C28.5179 44.0244 28.6696 44.1964 28.7412 44.4055L29.1228 45.5205C29.1761 45.6764 29.182 45.8447 29.1398 46.004C29.0975 46.1632 29.009 46.3064 28.8853 46.4154C28.7617 46.5243 28.6086 46.5942 28.4452 46.6162C28.2819 46.6381 28.1157 46.6111 27.9677 46.5386Z" fill="#F9EAB0"/>
<path d="M24.6535 51.41C24.4551 51.3127 24.3035 51.1405 24.2319 50.9314L23.8503 49.8164C23.7832 49.6085 23.8004 49.3825 23.8982 49.1871C23.9961 48.9918 24.1668 48.8426 24.3735 48.7719C24.5802 48.7011 24.8065 48.7144 25.0035 48.8089C25.2006 48.9033 25.3526 49.0714 25.427 49.2768L25.5388 49.6035L25.8655 49.4917C26.0734 49.4246 26.2994 49.4418 26.4948 49.5396C26.6901 49.6375 26.8392 49.8081 26.91 50.0149C26.9808 50.2216 26.9675 50.4479 26.873 50.6449C26.7786 50.842 26.6105 50.994 26.4051 51.0684L25.2901 51.45C25.081 51.5216 24.852 51.5072 24.6535 51.41Z" fill="#F9EAB0"/>
<path d="M23.5068 48.065C23.3084 47.9678 23.1567 47.7956 23.0852 47.5865L22.7036 46.4715C22.6321 46.2624 22.6465 46.0335 22.7438 45.8351C22.841 45.6367 23.0131 45.485 23.2221 45.4134L24.3371 45.0318C24.5451 44.9646 24.771 44.9818 24.9664 45.0797C25.1618 45.1775 25.3109 45.3482 25.3817 45.555C25.4524 45.7617 25.4391 45.9879 25.3447 46.185C25.2503 46.382 25.0822 46.5341 24.8767 46.6084L24.55 46.7202L24.6618 47.0469C24.7152 47.2029 24.7211 47.3711 24.6788 47.5304C24.6366 47.6896 24.548 47.8328 24.4244 47.9418C24.3008 48.0508 24.1476 48.1206 23.9843 48.1426C23.821 48.1645 23.6548 48.1375 23.5068 48.065Z" fill="#F9EAB0"/>
<path d="M27.9968 50.2652C27.8488 50.1927 27.7257 50.0779 27.643 49.9354C27.5602 49.7929 27.5216 49.629 27.532 49.4646C27.5423 49.3001 27.6012 49.1424 27.7012 49.0114C27.8012 48.8804 27.9378 48.782 28.0937 48.7286L28.4204 48.6168L28.3086 48.2901C28.2414 48.0822 28.2586 47.8562 28.3565 47.6608C28.4543 47.4654 28.625 47.3163 28.8317 47.2456C29.0385 47.1748 29.2647 47.1881 29.4618 47.2825C29.6588 47.377 29.8109 47.545 29.8852 47.7505L30.2668 48.8655C30.3383 49.0746 30.3239 49.3035 30.2267 49.5019C30.1294 49.7004 29.9574 49.852 29.7483 49.9236L28.6333 50.3052C28.4242 50.3768 28.1953 50.3624 27.9968 50.2652Z" fill="#F9EAB0"/>
<path d="M18.9876 42.1382C19.4008 42.3408 19.9001 42.1699 20.1026 41.7566C20.3051 41.3433 20.1343 40.8441 19.721 40.6416C19.3077 40.4391 18.8085 40.6099 18.606 41.0232C18.4034 41.4365 18.5743 41.9357 18.9876 42.1382Z" fill="#FF8115"/>
<path d="M15.6399 43.283C16.0532 43.4855 16.5524 43.3147 16.7549 42.9014C16.9574 42.4881 16.7866 41.9889 16.3733 41.7864C15.96 41.5839 15.4608 41.7547 15.2583 42.168C15.0558 42.5813 15.2266 43.0805 15.6399 43.283Z" fill="#FF8115"/>
<path d="M16.7844 46.6282C17.1977 46.8307 17.6969 46.6599 17.8995 46.2466C18.102 45.8333 17.9311 45.3341 17.5178 45.1316C17.1046 44.9291 16.6054 45.0999 16.4028 45.5132C16.2003 45.9265 16.3712 46.4257 16.7844 46.6282Z" fill="#FF8115"/>
<path d="M35.4485 50.2056C35.8618 50.4081 36.361 50.2373 36.5635 49.824C36.766 49.4107 36.5952 48.9115 36.1819 48.709C35.7686 48.5065 35.2694 48.6773 35.0669 49.0906C34.8644 49.5039 35.0352 50.0031 35.4485 50.2056Z" fill="#FF8115"/>
<path d="M36.593 53.5508C37.0063 53.7534 37.5055 53.5825 37.708 53.1692C37.9106 52.7559 37.7397 52.2567 37.3264 52.0542C36.9132 51.8517 36.4139 52.0225 36.2114 52.4358C36.0089 52.8491 36.1798 53.3483 36.593 53.5508Z" fill="#FF8115"/>
<path d="M33.2493 54.6956C33.6626 54.8981 34.1618 54.7273 34.3643 54.314C34.5668 53.9007 34.396 53.4015 33.9827 53.199C33.5694 52.9965 33.0702 53.1673 32.8677 53.5806C32.6651 53.9939 32.836 54.4931 33.2493 54.6956Z" fill="#FF8115"/>
<path d="M46.9964 28.542L40.6011 41.5926C40.212 42.3864 39.5236 42.9932 38.6872 43.2795C37.8507 43.5658 36.9349 43.508 36.141 43.119L24.168 37.2518C23.3741 36.8627 22.7673 36.1743 22.481 35.3379C22.1948 34.5014 22.2525 33.5856 22.6415 32.7917L25.5605 26.8351C28.2736 25.2922 31.3228 24.4359 34.4426 24.3408C37.5623 24.2457 40.658 24.9146 43.4601 26.2894C44.7202 26.9043 45.9065 27.66 46.9964 28.542Z" fill="#3F5C6C"/>
</g>
<defs>
<clipPath id="clip0_795_3">
<rect width="50" height="50" fill="white" transform="translate(22.0039) rotate(26.1067)"/>
</clipPath>
</defs>
</svg>
