<svg width="124" height="124" viewBox="0 0 124 124" fill="none" xmlns="http://www.w3.org/2000/svg">
<mask id="mask0_923_19" style="mask-type:luminance" maskUnits="userSpaceOnUse" x="36" y="2" width="51" height="121">
<path d="M86.5285 2.06146H36.6602V122.332H86.5285V2.06146Z" fill="white"/>
</mask>
<g mask="url(#mask0_923_19)">
<path d="M81.7344 108.716C81.8881 108.223 83.4922 108.803 83.9232 108.646L83.9396 109.18L84.3045 109.208C84.4277 109.717 84.4993 110.216 84.4668 110.748C84.4421 111.157 84.4134 111.769 83.9375 111.641L83.9211 112.174H81.9394L81.7344 111.971V108.716Z" fill="#FF3901"/>
<path d="M36.6602 43.6373C37.778 43.8775 37.1155 46.0395 37.977 46.6502C38.9184 47.3178 40.9941 47.0512 42.1448 47.1043C42.3909 48.8611 40.787 49.207 40.1614 50.8236C37.017 58.9439 42.0833 63.2047 44.3784 70.3746C45.1004 71.1951 46.5485 70.5272 47.3915 71.3435C48.4335 72.3532 51.1861 77.7827 52.509 79.629C55.2144 83.4073 58.1311 86.7928 61.5892 89.9195C63.4003 91.5584 69.8901 95.9108 70.6859 97.2279C71.7871 99.0478 70.8212 100.129 71.1515 101.668C71.4284 102.955 73.3401 104.872 73.8303 106.476C75.4833 111.889 73.8631 114.359 74.0271 119.108C74.0743 120.472 75.0136 121.091 75.0588 122.33H43.8903C41.5684 122.33 36.6602 117.463 36.6602 115.154V43.6373Z" fill="#FCFFF8"/>
<path d="M86.521 113.176C85.9816 117.463 82.956 121.486 78.5421 122.326C82.7222 117.693 77.6849 110.765 77.5309 105.23C77.4693 103.001 78.8231 100.919 78.45 98.948C78.1525 97.3803 76.3044 95.6622 75.7712 93.6531C74.9096 90.4143 74.9589 86.6135 73.792 83.2424C72.8462 80.5084 70.4751 77.6665 69.782 74.8469C67.9626 67.4491 68.0448 53.6082 64.0142 47.3932C63.6327 46.8047 62.5867 46.6522 62.5559 46.3101C62.3877 44.4231 66.4079 35.6104 69.5584 35.7163C70.1859 42.9147 72.5098 48.8323 75.5702 55.2492C59.8751 62.4942 75.3097 81.6871 86.519 68.3816L86.521 113.176Z" fill="#FCFFF8"/>
<path d="M86.5189 59.4753C85.0132 59.8517 85.6039 58.3923 84.8779 57.6369C84.1519 56.8816 81.1181 55.3732 81.0281 55.1635C80.5684 54.101 80.6916 51.8637 80.3018 50.5507C78.2897 43.7859 77.5883 41.7929 76.4848 34.5417C75.1844 26.0058 72.485 24.7477 65.614 20.0839L65.5586 19.1515C65.5914 18.8909 66.3442 18.8502 66.5533 18.5204C67.3553 17.2664 69.8966 14.1457 70.2002 13.2845C70.3521 12.855 71.3736 7.97535 71.3859 7.67611C71.5191 4.34975 69.0025 4.46374 67.5727 2.05954H76.7987C78.3287 2.05954 82.107 3.87339 83.3027 5.00728C84.5969 6.23685 86.523 10.0538 86.523 11.7109V59.4733L86.5189 59.4753Z" fill="#FCFFF8"/>
<path d="M62.0955 2.55551C62.1263 3.3271 61.1602 3.12148 60.6556 3.84829C59.2894 5.81696 60.034 7.1525 59.5253 8.68348C59.2997 9.36346 58.2289 9.31051 58.0895 9.8317C57.5049 12.008 60.4115 15.0069 58.1448 17.6922C57.3161 18.6735 51.0578 18.8852 49.1194 19.6242C46.1513 20.7541 43.8826 25.7481 42.5554 28.4538L36.6602 42.1531V9.23723C36.6602 7.63907 41.7801 2.55551 43.3923 2.55551H62.0955Z" fill="#FCFFF8"/>
</g>
</svg>
