<svg xmlns:xlink="http://www.w3.org/1999/xlink" xmlns="http://www.w3.org/2000/svg" data-v-b56c1cab="" fill="currentColor" width="25.6815244" height="25.6815244" class="cursor-pointer" style="color: var(--skin-svg-color);"><defs><symbol viewBox="0 0 28 28" id="icon_refresh"><path data-name="comomn / loading icon _ 44*44" opacity=".02" d="M0 0h28v28H0z"></path><path d="M10.727 24.909c2.667-4.62 4.828-8.731 4.828-8.731l2 3.722a10.352 10.352 0 0 0 4.625-8.627c0-2.891-1.91-5.757-3.819-7.638 3.74 1.565 7.091 5.512 7.091 9.819a10.364 10.364 0 0 1-6.251 9.512l1.89 3.033ZM2.545 14.544a10.364 10.364 0 0 1 6.251-9.511L6.909 1.999l10.364 1.09a93.511 93.511 0 0 0-4.828 8.731l-2-3.721a10.352 10.352 0 0 0-4.626 8.628c0 2.89 1.912 5.757 3.819 7.637-3.741-1.565-7.093-5.512-7.093-9.82Z"></path></symbol></defs><use xlink:href="#icon_refresh"></use></svg>