<svg xmlns:xlink="http://www.w3.org/1999/xlink" xmlns="http://www.w3.org/2000/svg" data-v-95a5ea25="" fill="currentColor" width="27.393626026666666" height="27.393626026666666" style="color: var(--skin-active-color);"><defs><symbol viewBox="0 0 31.979 33.88" id="icon_mobile_poker"><path d="M17.456 33.88H3.492A3.485 3.485 0 0 1 0 30.41V3.47A3.485 3.485 0 0 1 3.492 0h13.975a3.486 3.486 0 0 1 3.481 3.484v12.781a10.035 10.035 0 0 0-2.255 1.066V5.183a1.161 1.161 0 0 0-1.164-1.156h-14a1.161 1.161 0 0 0-1.165 1.156V27.6a1.136 1.136 0 0 0 .982 1.157h11.12a9.961 9.961 0 0 0 3.622 5.057 3.457 3.457 0 0 1-.632.066Zm-6.674-3.708a1.247 1.247 0 1 0 1.255 1.247 1.247 1.247 0 0 0-1.255-1.247ZM24.1 33.614a7.831 7.831 0 1 1 7.879-7.831 7.831 7.831 0 0 1-7.879 7.831Zm-.159-3.321 1.45.012a6.019 6.019 0 0 1-1.357-2.4 4.6 4.6 0 0 0 1.5.866 2.287 2.287 0 0 0 2.742-2.509c-.023-1.233-.923-2.054-2.063-3.092a19 19 0 0 1-2.268-2.343 19.557 19.557 0 0 1-2.255 2.286c-1.145 1.029-2.049 1.842-2.086 3.085a2.292 2.292 0 0 0 2.711 2.56 5.013 5.013 0 0 0 1.562-.855 5.972 5.972 0 0 1-1.385 2.385c.869.011 1.227.013 1.373.013h.08Z"></path></symbol></defs><use xlink:href="#icon_mobile_poker"></use></svg>