<svg xmlns:xlink="http://www.w3.org/1999/xlink" xmlns="http://www.w3.org/2000/svg" data-v-95a5ea25="" fill="currentColor" width="27.393626026666666" height="27.393626026666666" class="cursor-pointer" style="color: var(--skin-input-icon-color);"><defs><symbol viewBox="0 0 28 28" fill="currentColor" aria-hidden="true" id="icon_clear"><path d="M14 28a14 14 0 1 1 9.9-4.1A13.907 13.907 0 0 1 14 28Zm0-12.351 4.536 4.537a1.167 1.167 0 1 0 1.65-1.65l-4.537-4.537 4.537-4.537a1.167 1.167 0 1 0-1.65-1.65L14 12.348 9.462 7.812a1.167 1.167 0 1 0-1.65 1.65l4.538 4.537-4.538 4.537a1.167 1.167 0 0 0 1.65 1.65l4.537-4.537Z"></path></symbol></defs><use xlink:href="#icon_clear"></use></svg>