<svg xmlns:xlink="http://www.w3.org/1999/xlink" xmlns="http://www.w3.org/2000/svg" data-v-c8a0c9d3="" fill="currentColor" width="51.3630488" height="51.3630488" class="cursor-pointer" style="color: rgb(255, 255, 255);"><defs><symbol viewBox="0 0 1024 1024" fill="currentColor" id="icon_close"><path d="M512 981.333c-258.133 0-469.333-211.2-469.333-469.333S253.867 42.667 512 42.667 981.333 253.867 981.333 512 770.133 981.333 512 981.333zM512 128c-211.2 0-384 172.8-384 384s172.8 384 384 384 384-172.8 384-384-172.8-384-384-384z"></path><path d="M332.8 691.2c8.533 8.533 19.2 12.8 29.867 12.8s21.333-4.267 29.866-12.8L512 571.733 631.467 691.2c8.533 8.533 19.2 12.8 29.866 12.8s21.334-4.267 29.867-12.8c17.067-17.067 17.067-42.667 0-59.733L571.733 512 691.2 392.533c17.067-17.066 17.067-42.666 0-59.733s-42.667-17.067-59.733 0L512 452.267 392.533 332.8c-17.066-17.067-42.666-17.067-59.733 0s-17.067 42.667 0 59.733L452.267 512 332.8 631.467c-17.067 17.066-17.067 42.666 0 59.733"></path></symbol></defs><use xlink:href="#icon_close"></use></svg>